<?xml version="1.0" encoding="UTF-8" standalone="no"?>
<svg
   height="512"
   viewBox="0 0 448 512"
   version="1.1"
   id="svg1013"
   sodipodi:docname="depth-icon.svg"
   width="448"
   inkscape:version="1.2.2 (b0a84865, 2022-12-01)"
   xmlns:inkscape="http://www.inkscape.org/namespaces/inkscape"
   xmlns:sodipodi="http://sodipodi.sourceforge.net/DTD/sodipodi-0.dtd"
   xmlns="http://www.w3.org/2000/svg"
   xmlns:svg="http://www.w3.org/2000/svg"
>
   <defs
      id="defs1017"
   />
   <sodipodi:namedview
      id="namedview1015"
      pagecolor="#ffffff"
      bordercolor="#000000"
      borderopacity="0.25"
      inkscape:showpageshadow="2"
      inkscape:pageopacity="0.0"
      inkscape:pagecheckerboard="0"
      inkscape:deskcolor="#d1d1d1"
      showgrid="false"
      inkscape:zoom="0.97458415"
      inkscape:cx="321.67566"
      inkscape:cy="282.68467"
      inkscape:window-width="1612"
      inkscape:window-height="851"
      inkscape:window-x="732"
      inkscape:window-y="159"
      inkscape:window-maximized="0"
      inkscape:current-layer="svg1013"
   />
   <!--! Font Awesome Free 6.4.0 by @fontawesome - https://fontawesome.com License - https://fontawesome.com/license (Commercial License) Copyright 2023 Fonticons, Inc. -->
   <path
      d="m 222.46088,499.00158 c 17.7,0 31.92636,-14.30015 32,-32 l 1.02608,-246.61275 25.4,25.4 c 12.5,12.5 32.8,12.5 45.3,0 12.5,-12.5 12.5,-32.8 0,-45.3 l -80,-80 c -12.5,-12.5 -32.8,-12.5 -45.3,0 l -80,80 c -12.5,12.5 -12.5,32.8 0,45.3 12.5,12.5 32.8,12.5 45.3,0 l 25.3,-25.4 -1.02608,246.61275 c -0.0736,17.69985 14.3,32 32,32 z M 209.58779,18.923421 c -17.52836,15.5 -38.95191,26.1 -60.37547,26.1 -20.95613,0 -60.297562,-26.1 -60.297562,-26.1 v 0 c 0,0 -21.890978,-7.8 -30.538303,1.7 -11.218152,11.9 -25.318745,21 -39.419338,25.2 -13.3994595,4 -16.9390419,22.226079 -13.8228887,39.426079 3.1161527,17.2 11.7194847,26.87392 25.1189437,22.87392 19.086439,-5.7 34.97882,-16.499999 45.34003,-24.999999 22.592107,15.599998 47.910858,25.899999 73.619118,25.899999 24.85133,0 47.20973,-9.900001 62.63468,-18.899999 4.51843,-2.7 8.64733,-5.3 12.153,-7.7 3.50567,2.4 7.55667,5.1 12.153,7.7 15.42496,8.999998 37.78336,18.899999 62.63468,18.899999 25.70826,0 51.02701,-10.300001 73.61912,-25.799999 10.43911,8.4 26.25359,19.299999 45.34003,24.999999 13.39946,4 22.00279,-4.64784 25.11894,-21.847842 3.11616,-17.2 -0.42343,-36.452157 -13.82289,-40.452157 -14.10059,-4.2 -28.20118,-13.3 -39.41934,-25.2 -8.64732,-9.4 -30.5383,-1.7 -30.5383,-1.7 v 0 c 0,0 -39.34143,26 -60.29756,26 -21.42356,0 -42.84711,-10.6 -60.37547,-26.1 -8.64733,-7.9 -20.17709,-7.9 -28.82442,0 z"
      id="path1011"
      sodipodi:nodetypes="sscsssssssccsscsssccsccscccsccsccssscc"
      style="fill:#fff"
   />
</svg>
