<?xml version="1.0" encoding="UTF-8" standalone="no"?>
<svg
   width="1033.296"
   height="522.442"
   viewBox="0 0 1033.296 522.442"
   version="1.1"
   id="svg75"
   sodipodi:docname="PS4.svg"
   inkscape:version="1.2.1 (9c6d41e410, 2022-07-14, custom)"
   xmlns:inkscape="http://www.inkscape.org/namespaces/inkscape"
   xmlns:sodipodi="http://sodipodi.sourceforge.net/DTD/sodipodi-0.dtd"
   xmlns="http://www.w3.org/2000/svg"
   xmlns:svg="http://www.w3.org/2000/svg">
  <defs
     id="defs79" />
  <sodipodi:namedview
     id="namedview77"
     pagecolor="#ffffff"
     bordercolor="#666666"
     borderopacity="1.0"
     inkscape:showpageshadow="2"
     inkscape:pageopacity="0.0"
     inkscape:pagecheckerboard="0"
     inkscape:deskcolor="#d1d1d1"
     showgrid="false"
     inkscape:zoom="2.6226753"
     inkscape:cx="697.3795"
     inkscape:cy="300.07527"
     inkscape:window-width="3840"
     inkscape:window-height="2109"
     inkscape:window-x="2560"
     inkscape:window-y="0"
     inkscape:window-maximized="1"
     inkscape:current-layer="ps4_android" />
  <g
     id="ps4_android"
     transform="translate(-1896.351 -1533.57)">
    <path
       id="path_4924"
       d="M2.28,0H9.7a.481.481,0,0,0,.48-.48V-1.8a.481.481,0,0,0-.48-.48H4.32a.227.227,0,0,1-.24-.24v-13.8a.481.481,0,0,0-.48-.48H2.28a.481.481,0,0,0-.48.48V-.48A.481.481,0,0,0,2.28,0ZM16.56.24A4.956,4.956,0,0,0,21.6-4.824a4.2,4.2,0,0,0-1.9-3.72c-.216-.144-.216-.36.024-.576a4.231,4.231,0,0,0,1.512-3.288,4.371,4.371,0,0,0-4.632-4.632,4.422,4.422,0,0,0-4.728,4.392v.6a.481.481,0,0,0,.48.48h1.3a.481.481,0,0,0,.48-.48v-.36a2.356,2.356,0,0,1,2.472-2.472,2.228,2.228,0,0,1,2.352,2.472,2.352,2.352,0,0,1-2.4,2.52h-.48a.481.481,0,0,0-.48.48v1.272a.481.481,0,0,0,.48.48h.48a2.627,2.627,0,0,1,2.76,2.832,2.685,2.685,0,0,1-2.76,2.9,2.684,2.684,0,0,1-2.784-2.832V-4.92a.481.481,0,0,0-.48-.48h-1.32a.481.481,0,0,0-.48.48v.408A4.883,4.883,0,0,0,16.56.24Z"
       transform="translate(2288.848 1975.454)"
       fill="#747474" />
    <path
       id="path_4927"
       d="M2.28,0H3.6a.481.481,0,0,0,.48-.48v-6a.227.227,0,0,1,.24-.24H5.784a.469.469,0,0,1,.456.288L9.12-.384A.621.621,0,0,0,9.7,0H11.16a.429.429,0,0,0,.48-.432.818.818,0,0,0-.1-.384L8.76-6.48a.885.885,0,0,1-.12-.408c0-.216.192-.384.5-.576a4.746,4.746,0,0,0,2.5-4.3A4.893,4.893,0,0,0,6.6-16.8H2.28a.481.481,0,0,0-.48.48V-.48A.481.481,0,0,0,2.28,0ZM4.32-9a.227.227,0,0,1-.24-.24v-5.04a.227.227,0,0,1,.24-.24H6.6a2.6,2.6,0,0,1,2.688,2.76A2.6,2.6,0,0,1,6.6-9ZM18.624.24a4.956,4.956,0,0,0,5.04-5.064,4.2,4.2,0,0,0-1.9-3.72c-.216-.144-.216-.36.024-.576A4.231,4.231,0,0,0,23.3-12.408a4.371,4.371,0,0,0-4.632-4.632,4.422,4.422,0,0,0-4.728,4.392v.6a.481.481,0,0,0,.48.48h1.3a.481.481,0,0,0,.48-.48v-.36a2.356,2.356,0,0,1,2.472-2.472,2.228,2.228,0,0,1,2.352,2.472,2.352,2.352,0,0,1-2.4,2.52h-.48a.481.481,0,0,0-.48.48v1.272a.481.481,0,0,0,.48.48h.48a2.627,2.627,0,0,1,2.76,2.832,2.685,2.685,0,0,1-2.76,2.9A2.684,2.684,0,0,1,15.84-4.752V-4.92a.481.481,0,0,0-.48-.48H14.04a.481.481,0,0,0-.48.48v.408A4.883,4.883,0,0,0,18.624.24Z"
       transform="translate(2512.154 1975.454)"
       fill="#747474" />
    <path
       id="path_4780"
       d="M 0,0 168.98327,0.02680043"
       transform="translate(1978.356,1542.979)"
       fill="none"
       stroke="#747474"
       stroke-linecap="round"
       stroke-width="2"
       sodipodi:nodetypes="cc" />
    <path
       id="path_4820"
       d="M 0,0 185.11377,0.03867949"
       transform="translate(1978.356,1611.312)"
       fill="none"
       stroke="#747474"
       stroke-linecap="round"
       stroke-width="2"
       sodipodi:nodetypes="cc" />
    <path
       id="path_4865"
       d="m 1978.4965,1738.975 h 173.5234"
       fill="none"
       stroke="#747474"
       stroke-linecap="round"
       stroke-width="2.13591" />
    <path
       id="path_3656"
       d="M 10.18868,0.34824367 55.798189,54.832631"
       transform="translate(2626.548,1737.683)"
       fill="none"
       stroke="#747474"
       stroke-linecap="round"
       stroke-width="2"
       sodipodi:nodetypes="cc" />
    <path
       id="path_4867"
       d="m 2831.2448,1738.0664 -146.9444,-0.2534"
       fill="none"
       stroke="#747474"
       stroke-linecap="round"
       stroke-width="1.98362"
       sodipodi:nodetypes="cc" />
    <path
       id="path_4868"
       d="M 27.019,0 -27.375044,0.00559499"
       transform="translate(2609.481,1737.975)"
       fill="none"
       stroke="#747474"
       stroke-linecap="round"
       stroke-width="2"
       sodipodi:nodetypes="cc" />
    <path
       id="path_4895"
       d="M 2831.4851,1792.306 H 2682.5482"
       fill="none"
       stroke="#747474"
       stroke-linecap="round"
       stroke-width="2.04376" />
    <path
       id="path_4896"
       d="M 2831.3113,1846.638 H 2678.5321"
       fill="none"
       stroke="#747474"
       stroke-linecap="round"
       stroke-width="2.13853" />
    <path
       id="path_3658"
       d="M -17.066304,-23.838584 27.564117,34.096065"
       transform="translate(2650.958,1812.558)"
       fill="none"
       stroke="#747474"
       stroke-linecap="round"
       stroke-width="2"
       sodipodi:nodetypes="cc" />
    <path
       id="path_4821"
       d="m 2178.554,1628.167 -14.8491,-16.6215"
       fill="none"
       stroke="#747474"
       stroke-linecap="round"
       stroke-width="2"
       sodipodi:nodetypes="cc" />
    <path
       id="path_4781"
       d="m 2147.4298,1543.0294 72.8882,83.9936"
       fill="none"
       stroke="#747474"
       stroke-linecap="round"
       stroke-width="2"
       sodipodi:nodetypes="cc" />
    <path
       id="path_4782"
       d="m 2831.3904,1542.9778 -153.8628,0.033"
       fill="none"
       stroke="#747474"
       stroke-linecap="round"
       stroke-width="1.99761"
       sodipodi:nodetypes="cc" />
    <path
       id="path_4822"
       d="m 2831.9561,1611.305 -175.3604,0.2836"
       fill="none"
       stroke="#747474"
       stroke-linecap="round"
       stroke-width="1.98604"
       sodipodi:nodetypes="cc" />
    <path
       id="path_4823"
       d="m 2641.443,1628.167 15.1451,-16.5835"
       fill="none"
       stroke="#747474"
       stroke-linecap="round"
       stroke-width="2"
       sodipodi:nodetypes="cc" />
    <path
       id="path_4783"
       d="M 2677.5697,1542.9973 2603.68,1627.023"
       fill="none"
       stroke="#747474"
       stroke-linecap="round"
       stroke-width="2"
       sodipodi:nodetypes="cc" />
    <path
       id="path_4897"
       d="M 0.07991638,-11.416872 0,96.555"
       transform="translate(2300.217,1846.016)"
       fill="none"
       stroke="#747474"
       stroke-linecap="round"
       stroke-width="2"
       sodipodi:nodetypes="cc" />
    <path
       id="path_4824"
       d="M0,0V96.555"
       transform="translate(2272.217 1570.016)"
       fill="none"
       stroke="#747474"
       stroke-linecap="round"
       stroke-width="2" />
    <path
       id="path_4825"
       d="M0,0V96.555"
       transform="translate(2559.217 1570.016)"
       fill="none"
       stroke="#747474"
       stroke-linecap="round"
       stroke-width="2" />
    <path
       id="path_4898"
       d="M 0.16337013,-25.060233 0,78.73"
       transform="translate(2412.142,1865.326)"
       fill="none"
       stroke="#747474"
       stroke-linecap="round"
       stroke-width="2"
       sodipodi:nodetypes="cc" />
    <path
       id="path_4899"
       d="M -0.36136913,-12.639193 0,98.041"
       transform="translate(2524.523,1846.016)"
       fill="none"
       stroke="#747474"
       stroke-linecap="round"
       stroke-width="2"
       sodipodi:nodetypes="cc" />
    <g
       id="ps4pro"
       transform="translate(6310.176 10257.991)">
      <g
         id="组_4415"
         transform="translate(-4247.176 -8639.834)"
         opacity="0.5"
         inkscape:label="big_body">
        <g
           id="组_4404"
           transform="translate(0 0)"
           inkscape:label="body">
          <path
             id="path_t"
             d="M17.822,0H211.717a17.867,17.867,0,0,1,17.822,17.911v91.154a17.867,17.867,0,0,1-17.822,17.911H17.822A17.867,17.867,0,0,1,0,109.065V17.911A17.867,17.867,0,0,1,17.822,0Z"
             transform="translate(234.129 9.709)"
             fill="none"
             stroke="#747474"
             stroke-width="3" />
          <circle
             id="path_l3"
             cx="27.65"
             cy="27.65"
             r="27.65"
             fill="none"
             stroke="#747474"
             stroke-width="2"
             transform="translate(209.945 188.205)" />
          <circle
             id="path_r3"
             cx="27.65"
             cy="27.65"
             r="27.65"
             fill="none"
             stroke="#747474"
             stroke-width="2"
             transform="translate(433.003 188.205)" />
          <circle
             id="path_triangle"
             cx="21.843"
             cy="21.843"
             r="21.843"
             transform="translate(547.683 47.384)"
             fill="none"
             stroke="#747474"
             stroke-width="3" />
          <circle
             id="path_circle"
             cx="21.843"
             cy="21.843"
             r="21.843"
             transform="translate(599.943 97.603)"
             fill="none"
             stroke="#747474"
             stroke-width="3" />
          <circle
             id="path_x"
             cx="21.843"
             cy="21.843"
             r="21.843"
             transform="translate(549.724 150.204)"
             fill="none"
             stroke="#747474"
             stroke-width="3" />
          <circle
             id="path_square"
             cx="21.843"
             cy="21.843"
             r="21.843"
             transform="translate(497.056 97.603)"
             fill="none"
             stroke="#747474"
             stroke-width="3" />
          <path
             id="path_up"
             d="M288.121,227.315h22.443a7.5,7.5,0,0,1,7.5,7.5v19.613a7.493,7.493,0,0,1-2.2,5.3L304.987,270.6a7.5,7.5,0,0,1-10.6,0L283.15,259.365a7.5,7.5,0,0,1-2.194-5.172l-.328-19.254A7.5,7.5,0,0,1,288.121,227.315Z"
             transform="translate(-172.668 -162.783)"
             fill="none"
             stroke="#747474"
             stroke-width="2" />
          <path
             id="path_right"
             d="M369.619,291.879v22.443a7.5,7.5,0,0,1-7.5,7.5H342.51a7.494,7.494,0,0,1-5.3-2.2l-10.878-10.877a7.5,7.5,0,0,1,0-10.6l11.237-11.237a7.5,7.5,0,0,1,5.171-2.194L362,284.385A7.5,7.5,0,0,1,369.619,291.879Z"
             transform="translate(-187.541 -182.29)"
             fill="none"
             stroke="#747474"
             stroke-width="2" />
          <path
             id="path_left"
             d="M224.577,314.322V291.88a7.5,7.5,0,0,1,7.5-7.495h19.613a7.494,7.494,0,0,1,5.3,2.2l10.878,10.878a7.5,7.5,0,0,1,0,10.6l-11.237,11.236a7.5,7.5,0,0,1-5.171,2.195l-19.254.328A7.5,7.5,0,0,1,224.577,314.322Z"
             transform="translate(-153.509 -182.29)"
             fill="none"
             stroke="#747474"
             stroke-width="2" />
          <path
             id="path_down"
             d="M310.564,374.528H288.121a7.5,7.5,0,0,1-7.5-7.495V347.42a7.5,7.5,0,0,1,2.2-5.3L293.7,331.243a7.5,7.5,0,0,1,10.6,0l11.236,11.237a7.5,7.5,0,0,1,2.194,5.172l.328,19.254A7.5,7.5,0,0,1,310.564,374.528Z"
             transform="translate(-172.668 -197.557)"
             fill="none"
             stroke="#747474"
             stroke-width="2" />
          <rect
             id="path_options"
             width="23.408"
             height="39.467"
             rx="11.704"
             transform="translate(483.865 31.053)"
             fill="none"
             stroke="#747474"
             stroke-width="2" />
          <path
             id="path_3404"
             d="M230.053,154.69s23.6,11.613,58.741,0V143.181c5.844-2.541,13.7-5.182,27.456-6.407,24.045-2.14,41.164.066,58.025,11.335v4.262a30.664,30.664,0,0,1,6.625,5.854c12.247,14.289,47.273,74.291,66.125,179.622,9.707,54.235,16.938,97.438,18.775,129.944,4.021,42.24-11.4,65.932-11.4,65.932C421.429,581.6,374.8,570.868,374.8,570.868c-16.919-3.757-43.885-15.017-53.157-49.381,0,0-22.67-92.43-33.854-99.141-12.248-7.349-11.656-8.851-15.433-8.035s-18.781,13.065-36.95,13.575-32.458-2.245-40.012-7.043-12.351-11.126-14.086-11.228c-.9-.052-23.163-.051-44.5-.037v.037s-8.259-.01-19.578-.021"
             transform="translate(230.535 -136.044)"
             fill="none"
             stroke="#747474"
             stroke-width="4"
             inkscape:label="path_body_right" />
          <circle
             id="path_ps"
             cx="20.006"
             cy="20.006"
             r="20.006"
             transform="translate(328.492 201.293)"
             fill="none"
             stroke="#747474"
             stroke-width="2" />
          <rect
             id="path_create"
             width="23.408"
             height="39.467"
             rx="11.704"
             transform="translate(197.609 33.756)"
             fill="none"
             stroke="#747474"
             stroke-width="2" />
          <path
             id="path_3"
             d="m 353.648,154.69 c 0,0 -23.6,11.613 -58.741,0 v -11.509 c -5.844,-2.541 -13.7,-5.182 -27.456,-6.407 -24.045,-2.14 -41.164,0.066 -58.025,11.335 v 4.262 a 30.665,30.665 0 0 0 -6.625,5.854 c -12.247,14.289 -47.273,74.291 -66.125,179.622 -9.707,54.235 -16.938,97.438 -18.775,129.944 -4.021,42.239 11.4,65.932 11.4,65.932 32.971,47.877 79.599,37.145 79.599,37.145 16.919,-3.757 43.885,-15.017 53.157,-49.381 0,0 22.67,-92.43 33.854,-99.141 12.248,-7.349 11.656,-8.851 15.433,-8.034 3.777,0.817 18.781,13.065 36.95,13.575 18.169,0.51 32.458,-2.245 40.012,-7.043 7.554,-4.798 12.351,-11.126 14.086,-11.228 0.9,-0.053 23.163,-0.051 44.5,-0.037 v 0.037 c 0,0 8.259,-0.01 19.578,-0.021"
             transform="translate(-117.232,-136.044)"
             fill="none"
             stroke="#747474"
             stroke-width="4"
             style="display:inline"
             inkscape:label="path_body_left" />
        </g>
        <g
           id="椭圆_2190"
           transform="translate(188.326 168.412)"
           fill="none"
           stroke="#747474"
           stroke-width="4"
           inkscape:label="left_axis">
          <circle
             cx="47.762"
             cy="47.762"
             r="47.762"
             stroke="none"
             id="circle59" />
          <circle
             cx="47.762"
             cy="47.762"
             r="45.762"
             fill="none"
             id="circle61" />
        </g>
        <g
           id="椭圆_2209"
           transform="translate(412.21 168.412)"
           fill="none"
           stroke="#747474"
           stroke-width="4"
           inkscape:label="right_axis">
          <circle
             cx="47.762"
             cy="47.762"
             r="47.762"
             stroke="none"
             id="circle64" />
          <circle
             cx="47.762"
             cy="47.762"
             r="45.762"
             fill="none"
             id="circle66" />
        </g>
      </g>
    </g>
    <path
       id="path_l1"
       d="m 298.24654,85.136484 11.7977,16.976896 -50.31608,-1.04726 -0.33349,-4.002641 c 0,0 11.69879,-7.32995 18.22092,-9.341801 6.62284,-2.042915 20.63095,-2.585194 20.63095,-2.585194 z"
       fill="none"
       stroke="#747474"
       stroke-width="2.00385"
       opacity="0.5"
       inkscape:label=""
       sodipodi:nodetypes="csccc"
       inkscape:highlight-color="#535353"
       style="stroke:#b2b2b2;stroke-opacity:0.165493"
       transform="translate(1896.351,1533.57)" />
    <path
       id="path_l2"
       d="m 2194.5081,1618.5604 11.7827,17.0901 34.4929,1.6317 -0.3052,-12.3798 c 0,0 -17.3405,-4.6021 -26.2154,-5.7018 -6.5385,-0.8102 -19.755,-0.6402 -19.755,-0.6402 z"
       fill="none"
       stroke="#747474"
       stroke-width="2.00385"
       opacity="0.5"
       inkscape:label=""
       sodipodi:nodetypes="csccc"
       inkscape:highlight-color="#535353"
       style="stroke:#b2b2b2;stroke-opacity:0.165493" />
    <path
       id="path_r1"
       d="m 2628.6952,1619.1004 -11.7442,16.5726 50.0884,-1.0223 0.3321,-3.9072 c 0,0 -11.6459,-7.1555 -18.1385,-9.1194 -6.5929,-1.9943 -20.5378,-2.5237 -20.5378,-2.5237 z"
       fill="none"
       stroke="#747474"
       stroke-width="2.00385"
       opacity="0.5"
       inkscape:label=""
       sodipodi:nodetypes="csccc"
       inkscape:highlight-color="#535353"
       style="stroke:#b2b2b2;stroke-opacity:0.165493" />
    <path
       id="path_r2"
       d="m 2628.7844,1618.9579 -11.7295,16.683 -34.3366,1.5929 0.3026,-12.085 c 0,0 17.2622,-4.4925 26.0968,-5.566 6.509,-0.7909 19.6657,-0.6249 19.6657,-0.6249 z"
       fill="none"
       stroke="#747474"
       stroke-width="2.00385"
       opacity="0.5"
       inkscape:label=""
       sodipodi:nodetypes="csccc"
       inkscape:highlight-color="#535353"
       style="stroke:#b2b2b2;stroke-opacity:0.165493" />
    <text
       xml:space="preserve"
       style="font-size:22.6667px;fill:#000000"
       x="2835.1978"
       y="1551.9933"
       id="text601-5-3"><tspan
         sodipodi:role="line"
         id="tspan599-9-5"
         x="2835.1978"
         y="1551.9933"
         style="font-style:normal;font-variant:normal;font-weight:500;font-stretch:normal;font-size:22.6667px;font-family:'Fira Mono for Powerline';-inkscape-font-specification:'Fira Mono for Powerline Medium';fill:#808080">R2</tspan></text>
    <text
       xml:space="preserve"
       style="font-size:22.6667px;fill:#000000"
       x="2835.1978"
       y="1620.1455"
       id="text601-5-3-8"><tspan
         sodipodi:role="line"
         id="tspan599-9-5-7"
         x="2835.1978"
         y="1620.1455"
         style="font-style:normal;font-variant:normal;font-weight:500;font-stretch:normal;font-size:22.6667px;font-family:'Fira Mono for Powerline';-inkscape-font-specification:'Fira Mono for Powerline Medium';fill:#808080">R1</tspan></text>
    <text
       xml:space="preserve"
       style="font-size:22.6667px;fill:#000000"
       x="2837.0564"
       y="1677.5518"
       id="text601-5-3-04-1"><tspan
         sodipodi:role="line"
         id="tspan599-9-5-1-1"
         x="2837.0564"
         y="1677.5518"
         style="font-style:normal;font-variant:normal;font-weight:500;font-stretch:normal;font-size:22.6667px;font-family:'Fira Mono for Powerline';-inkscape-font-specification:'Fira Mono for Powerline Medium';fill:#808080">TRIAN.</tspan></text>
    <text
       xml:space="preserve"
       style="font-size:22.6667px;fill:#000000"
       x="2835.991"
       y="1745.9158"
       id="text601-5-3-04-1-1"><tspan
         sodipodi:role="line"
         id="tspan599-9-5-1-1-8"
         x="2835.991"
         y="1745.9158"
         style="font-style:normal;font-variant:normal;font-weight:500;font-stretch:normal;font-size:22.6667px;font-family:'Fira Mono for Powerline';-inkscape-font-specification:'Fira Mono for Powerline Medium';fill:#808080">CIRCLE</tspan></text>
    <text
       xml:space="preserve"
       style="font-size:22.6667px;fill:#000000"
       x="2837.283"
       y="1854.9636"
       id="text601-5-3-04-1-1-4"><tspan
         sodipodi:role="line"
         id="tspan599-9-5-1-1-8-5"
         x="2837.283"
         y="1854.9636"
         style="font-style:normal;font-variant:normal;font-weight:500;font-stretch:normal;font-size:22.6667px;font-family:'Fira Mono for Powerline';-inkscape-font-specification:'Fira Mono for Powerline Medium';fill:#808080">X</tspan></text>
    <text
       xml:space="preserve"
       style="font-size:22.6667px;fill:#000000"
       x="2836.2178"
       y="1799.3341"
       id="text601-5-3-04-1-1-4-6"><tspan
         sodipodi:role="line"
         id="tspan599-9-5-1-1-8-5-8"
         x="2836.2178"
         y="1799.3341"
         style="font-style:normal;font-variant:normal;font-weight:500;font-stretch:normal;font-size:22.6667px;font-family:'Fira Mono for Powerline';-inkscape-font-specification:'Fira Mono for Powerline Medium';fill:#808080">SQUARE</tspan></text>
    <text
       xml:space="preserve"
       style="font-size:22.6667px;fill:#000000"
       x="1949.2426"
       y="1550.2762"
       id="text601"><tspan
         sodipodi:role="line"
         id="tspan599"
         x="1949.2426"
         y="1550.2762"
         style="font-style:normal;font-variant:normal;font-weight:500;font-stretch:normal;font-size:22.6667px;font-family:'Fira Mono for Powerline';-inkscape-font-specification:'Fira Mono for Powerline Medium';fill:#808080">L2</tspan></text>
    <text
       xml:space="preserve"
       style="font-size:22.6667px;fill:#000000"
       x="1949.2426"
       y="1617.2509"
       id="text601-5"><tspan
         sodipodi:role="line"
         id="tspan599-9"
         x="1949.2426"
         y="1617.2509"
         style="font-style:normal;font-variant:normal;font-weight:500;font-stretch:normal;font-size:22.6667px;font-family:'Fira Mono for Powerline';-inkscape-font-specification:'Fira Mono for Powerline Medium';fill:#808080">L1</tspan></text>
    <text
       xml:space="preserve"
       style="font-size:22.6667px;fill:#000000"
       x="1940.0132"
       y="1687.4222"
       id="text601-5-3-04"><tspan
         sodipodi:role="line"
         id="tspan599-9-5-1"
         x="1940.0132"
         y="1687.4222"
         style="font-style:normal;font-variant:normal;font-weight:500;font-stretch:normal;font-size:22.6667px;font-family:'Fira Mono for Powerline';-inkscape-font-specification:'Fira Mono for Powerline Medium';fill:#808080">UP</tspan></text>
    <text
       xml:space="preserve"
       style="font-size:22.6667px;fill:#000000"
       x="1896.234"
       y="1876.6207"
       id="text601-5-3-04-4"><tspan
         sodipodi:role="line"
         id="tspan599-9-5-1-7"
         x="1896.234"
         y="1876.6207"
         style="font-style:normal;font-variant:normal;font-weight:500;font-stretch:normal;font-size:22.6667px;font-family:'Fira Mono for Powerline';-inkscape-font-specification:'Fira Mono for Powerline Medium';fill:#808080">DOWN</tspan></text>
    <text
       xml:space="preserve"
       style="font-size:22.6667px;fill:#000000"
       x="1904.2009"
       y="1813.7566"
       id="text601-5-3-04-4-1"><tspan
         sodipodi:role="line"
         id="tspan599-9-5-1-7-4"
         x="1904.2009"
         y="1813.7566"
         style="font-style:normal;font-variant:normal;font-weight:500;font-stretch:normal;font-size:22.6667px;font-family:'Fira Mono for Powerline';-inkscape-font-specification:'Fira Mono for Powerline Medium';fill:#808080">RIGHT</tspan></text>
    <text
       xml:space="preserve"
       style="font-size:22.6667px;fill:#000000"
       x="1921.6227"
       y="1747.7432"
       id="text601-5-3-04-4-1-0"><tspan
         sodipodi:role="line"
         id="tspan599-9-5-1-7-4-4"
         x="1921.6227"
         y="1747.7432"
         style="font-style:normal;font-variant:normal;font-weight:500;font-stretch:normal;font-size:22.6667px;font-family:'Fira Mono for Powerline';-inkscape-font-specification:'Fira Mono for Powerline Medium';fill:#808080">LEFT</tspan></text>
    <path
       id="path_4986-1"
       d="m 1976.9234,1680.0283 h 192.0587"
       fill="none"
       stroke="#747474"
       stroke-linecap="round"
       stroke-width="1.99945" />
    <path
       id="path_4987-1"
       d="m 2189.8219,1697.1833 -19.8616,-17.1935"
       fill="none"
       stroke="#747474"
       stroke-linecap="round"
       stroke-width="3.77082"
       style="stroke-width:1.9047;stroke-dasharray:none" />
    <path
       id="path_3534-1"
       d="m 2191.5873,1738.2087 -33.1043,31.7881 -35.6302,34.3291"
       fill="none"
       stroke="#747474"
       stroke-linecap="round"
       stroke-width="2.14732"
       style="stroke-width:2.047;stroke-dasharray:none" />
    <path
       id="path_5033-8"
       d="m 2192.1458,1738.1762 h 27.6858"
       fill="none"
       stroke="#747474"
       stroke-linecap="round"
       stroke-width="2.84362"
       style="opacity:0.99;stroke-width:1.954;stroke-dasharray:none" />
    <path
       id="path_5034-1"
       d="m 1977.3122,1804.5019 145.0193,0.1406"
       fill="none"
       stroke="#747474"
       stroke-linecap="round"
       stroke-width="1.95042"
       sodipodi:nodetypes="cc" />
    <path
       id="path_5072-6"
       d="m 1974.9862,1868.3052 h 155.1947"
       fill="none"
       stroke="#747474"
       stroke-linecap="round"
       stroke-width="2.03624" />
    <path
       id="path_3532-0"
       d="m 2188.9792,1782.8404 -57.8115,85.2783"
       fill="none"
       stroke="#747474"
       stroke-linecap="round"
       stroke-width="2.09221" />
    <path
       id="path_4991-4-1"
       d="m 2410.8597,1588.4193 v 96.555"
       fill="none"
       stroke="#747474"
       stroke-linecap="round"
       stroke-width="2" />
    <text
       xml:space="preserve"
       style="font-size:22.6667px;fill:#000000"
       x="2403.9124"
       y="1575.3477"
       id="text601-5-3-0-9"><tspan
         sodipodi:role="line"
         id="tspan599-9-5-4-2"
         x="2403.9124"
         y="1575.3477"
         style="font-style:normal;font-variant:normal;font-weight:500;font-stretch:normal;font-size:22.6667px;font-family:'Fira Mono for Powerline';-inkscape-font-specification:'Fira Mono for Powerline Medium';fill:#808080">T</tspan></text>
    <text
       xml:space="preserve"
       style="font-size:22.6667px;fill:#000000"
       x="2508.4893"
       y="1560.9933"
       id="text601-5-3-0"><tspan
         sodipodi:role="line"
         id="tspan599-9-5-4"
         x="2508.4893"
         y="1560.9933"
         style="font-style:normal;font-variant:normal;font-weight:500;font-stretch:normal;font-size:22.6667px;font-family:'Fira Mono for Powerline';-inkscape-font-specification:'Fira Mono for Powerline Medium';fill:#808080">OPTIONS</tspan></text>
    <text
       xml:space="preserve"
       style="font-size:22.6667px;fill:#000000"
       x="2232.0913"
       y="1561.5312"
       id="text601-5-3-0-4"><tspan
         sodipodi:role="line"
         id="tspan599-9-5-4-1"
         x="2232.0913"
         y="1561.5312"
         style="font-style:normal;font-variant:normal;font-weight:500;font-stretch:normal;font-size:22.6667px;font-family:'Fira Mono for Powerline';-inkscape-font-specification:'Fira Mono for Powerline Medium';fill:#808080">CREATE</tspan></text>
    <path
       id="path_4986"
       d="M 2832.2865,1668.3937 H 2654.564"
       fill="none"
       stroke="#747474"
       stroke-linecap="round"
       stroke-width="1.91866" />
    <path
       id="path_4987"
       d="m 2632.7915,1685.5342 21.7634,-17.1091"
       fill="none"
       stroke="#747474"
       stroke-linecap="round"
       stroke-width="3.77082"
       style="stroke-width:1.98891;stroke-dasharray:none" />
    <text
       xml:space="preserve"
       style="font-style:normal;font-variant:normal;font-weight:bold;font-stretch:normal;font-size:22.6667px;font-family:'Fira Mono for Powerline';-inkscape-font-specification:'Fira Mono for Powerline Bold';fill:#808080"
       x="2398.002"
       y="1969.5385"
       id="text1111"><tspan
         sodipodi:role="line"
         id="tspan1109"
         x="2398.002"
         y="1969.5385"
         style="font-style:normal;font-variant:normal;font-weight:normal;font-stretch:normal;font-family:'Fira Mono for Powerline';-inkscape-font-specification:'Fira Mono for Powerline'">PS</tspan></text>
  </g>
</svg>
