<svg width="60" height="60" viewBox="0 0 60 60" fill="none" xmlns="http://www.w3.org/2000/svg">
<circle cx="30" cy="30" r="30" fill="#CBCBCB" fill-opacity="0.15"/>
<path d="M30 20.7281L26.9091 24.4561H33.0909L30 20.7281ZM39.2727 27.4386V33.4035L43.1364 30.4211L39.2727 27.4386ZM20.7273 27.4386L16.8636 30.4211L20.7273 33.4035V27.4386ZM33.0909 36.386H26.9091L30 40.114L33.0909 36.386ZM43.9091 17H16.0909C14.3909 17 13 18.3421 13 19.9825V40.8596C13 42.5 14.3909 43.8421 16.0909 43.8421H43.9091C45.6091 43.8421 47 42.5 47 40.8596V19.9825C47 18.3421 45.6091 17 43.9091 17ZM43.9091 40.8596H16.0909V19.9825H43.9091V40.8596Z" fill="white"/>
</svg>
