<svg width="60" height="60" viewBox="0 0 60 60" fill="none" xmlns="http://www.w3.org/2000/svg">
<circle cx="30" cy="30" r="30" fill="#CBCBCB" fill-opacity="0.15"/>
<path d="M28.4 25.2H31.6V22H28.4M30 42.8C22.944 42.8 17.2 37.056 17.2 30C17.2 22.944 22.944 17.2 30 17.2C37.056 17.2 42.8 22.944 42.8 30C42.8 37.056 37.056 42.8 30 42.8ZM30 14C27.8989 14 25.8183 14.4139 23.8771 15.2179C21.9359 16.022 20.172 17.2006 18.6863 18.6863C15.6857 21.6869 14 25.7565 14 30C14 34.2435 15.6857 38.3131 18.6863 41.3137C20.172 42.7994 21.9359 43.978 23.8771 44.7821C25.8183 45.5861 27.8989 46 30 46C34.2435 46 38.3131 44.3143 41.3137 41.3137C44.3143 38.3131 46 34.2435 46 30C46 27.8989 45.5861 25.8183 44.7821 23.8771C43.978 21.9359 42.7994 20.172 41.3137 18.6863C39.828 17.2006 38.0641 16.022 36.1229 15.2179C34.1817 14.4139 32.1012 14 30 14ZM28.4 38H31.6V28.4H28.4V38Z" fill="white"/>
</svg>
