<svg width="60" height="60" viewBox="0 0 60 60" fill="none" xmlns="http://www.w3.org/2000/svg">
<circle cx="30" cy="30" r="30" fill="#CBCBCB" fill-opacity="0.15"/>
<path d="M30.1905 17.0476C33.5429 17.0476 36.2857 19.7905 36.2857 23.1429C36.2857 26.3429 33.0857 31.5238 30.1905 35.181C27.2952 31.3714 24.0952 26.3429 24.0952 23.1429C24.0952 19.7905 26.8381 17.0476 30.1905 17.0476ZM30.1905 14C25.1619 14 21.0476 18.1143 21.0476 23.1429C21.0476 30 30.1905 39.9048 30.1905 39.9048C30.1905 39.9048 39.3333 29.8476 39.3333 23.1429C39.3333 18.1143 35.219 14 30.1905 14ZM30.1905 20.0952C28.5143 20.0952 27.1429 21.4667 27.1429 23.1429C27.1429 24.819 28.5143 26.1905 30.1905 26.1905C31.8667 26.1905 33.2381 24.819 33.2381 23.1429C33.2381 21.4667 31.8667 20.0952 30.1905 20.0952ZM42.381 39.9048C42.381 43.2571 36.8952 46 30.1905 46C23.4857 46 18 43.2571 18 39.9048C18 37.9238 19.8286 36.2476 22.7238 35.0286L23.6381 36.4C22.1143 37.1619 21.0476 38.0762 21.0476 39.1429C21.0476 41.2762 25.1619 42.9524 30.1905 42.9524C35.219 42.9524 39.3333 41.2762 39.3333 39.1429C39.3333 38.0762 38.2667 37.1619 36.5905 36.4L37.5048 35.0286C40.5524 36.2476 42.381 37.9238 42.381 39.9048Z" fill="white"/>
</svg>
