<svg width="60" height="60" viewBox="0 0 60 60" fill="none" xmlns="http://www.w3.org/2000/svg">
<path d="M60 30C60 46.5685 46.5685 60 30 60C13.4315 60 0 46.5685 0 30C0 13.4315 13.4315 0 30 0C46.5685 0 60 13.4315 60 30Z" fill="#CBCBCB" fill-opacity="0.15"/>
<path d="M30.0036 35.6C28.4768 35.6 27.0124 35.01 25.9327 33.9598C24.8531 32.9096 24.2465 31.4852 24.2465 30C24.2465 28.5148 24.8531 27.0904 25.9327 26.0402C27.0124 24.99 28.4768 24.4 30.0036 24.4C31.5305 24.4 32.9949 24.99 34.0745 26.0402C35.1542 27.0904 35.7607 28.5148 35.7607 30C35.7607 31.4852 35.1542 32.9096 34.0745 33.9598C32.9949 35.01 31.5305 35.6 30.0036 35.6ZM42.2251 31.552C42.2909 31.04 42.3403 30.528 42.3403 30C42.3403 29.472 42.2909 28.944 42.2251 28.4L45.6958 25.792C46.0084 25.552 46.0906 25.12 45.8932 24.768L42.6035 19.232C42.4061 18.88 41.9619 18.736 41.6001 18.88L37.5043 20.48C36.649 19.856 35.7607 19.312 34.7245 18.912L34.1158 14.672C34.0501 14.288 33.7046 14 33.2934 14H26.7139C26.3026 14 25.9572 14.288 25.8914 14.672L25.2828 18.912C24.2465 19.312 23.3583 19.856 22.503 20.48L18.4072 18.88C18.0453 18.736 17.6012 18.88 17.4038 19.232L14.114 24.768C13.9002 25.12 13.9989 25.552 14.3114 25.792L17.7821 28.4C17.7163 28.944 17.667 29.472 17.667 30C17.667 30.528 17.7163 31.04 17.7821 31.552L14.3114 34.208C13.9989 34.448 13.9002 34.88 14.114 35.232L17.4038 40.768C17.6012 41.12 18.0453 41.248 18.4072 41.12L22.503 39.504C23.3583 40.144 24.2465 40.688 25.2828 41.088L25.8914 45.328C25.9572 45.712 26.3026 46 26.7139 46H33.2934C33.7046 46 34.0501 45.712 34.1158 45.328L34.7245 41.088C35.7607 40.672 36.649 40.144 37.5043 39.504L41.6001 41.12C41.9619 41.248 42.4061 41.12 42.6035 40.768L45.8932 35.232C46.0906 34.88 46.0084 34.448 45.6958 34.208L42.2251 31.552Z" fill="white"/>
</svg>
