<svg width="60" height="60" viewBox="0 0 60 60" fill="none" xmlns="http://www.w3.org/2000/svg">
<circle cx="30" cy="30" r="30" fill="#CBCBCB" fill-opacity="0.15"/>
<path d="M42.622 40.7751L40.7761 42.621C40.5326 42.8631 40.2031 42.999 39.8597 42.999C39.5163 42.999 39.1868 42.8631 38.9433 42.621L23.5005 27.2042C23.0778 27.3267 22.6407 27.3922 22.2006 27.3992C21.373 27.3986 20.5574 27.2004 19.8218 26.8212C19.0862 26.442 18.4517 25.8926 17.9711 25.2188C17.4905 24.5449 17.1777 23.7661 17.0588 22.9471C16.9398 22.128 17.018 21.2924 17.287 20.5097L20.5887 23.8115L21.2777 23.1225L23.1235 21.2767L23.8125 20.5877L20.5108 17.286C21.2935 17.017 22.1291 16.9387 22.9481 17.0577C23.7672 17.1767 24.546 17.4895 25.2198 17.9701C25.8936 18.4506 26.443 19.0851 26.8222 19.8208C27.2015 20.5564 27.3996 21.3719 27.4002 22.1996C27.3933 22.6396 27.3277 23.0768 27.2052 23.4995L42.622 38.9423C42.8641 39.1858 43 39.5153 43 39.8587C43 40.2021 42.8641 40.5316 42.622 40.7751ZM17.378 38.9423C17.1359 39.1858 17 39.5153 17 39.8587C17 40.2021 17.1359 40.5316 17.378 40.7751L19.2239 42.621C19.4674 42.8631 19.7969 42.999 20.1403 42.999C20.4837 42.999 20.8132 42.8631 21.0567 42.621L28.1671 35.5235L24.4884 31.8448M40.3992 17L35.1996 19.5998V22.1996L32.3788 25.0204L34.9786 27.6202L37.7994 24.7994H40.3992L42.999 19.5998L40.3992 17Z" fill="white"/>
</svg>
