<?xml version="1.0" encoding="UTF-8" standalone="yes"?><svg xmlns:inkscape="http://www.inkscape.org/namespaces/inkscape" xmlns:sodipodi="http://sodipodi.sourceforge.net/DTD/sodipodi-0.dtd" xmlns="http://www.w3.org/2000/svg" xmlns:svg="http://www.w3.org/2000/svg" id="svg" version="1.1" width="399.92981" height="399.8425" viewBox="0 0 399.92981 399.8425" sodipodi:docname="1579cb2c93ea670a3477288d87de2cb2.svg" style="zoom: 1;"><defs id="defs8"></defs><sodipodi:namedview id="namedview6" pagecolor="#ffffff" bordercolor="#666666" borderopacity="1.0" inkscape:pageshadow="2" inkscape:pageopacity="0.0" inkscape:pagecheckerboard="0"></sodipodi:namedview><g id="svgg" transform="translate(-0.02267761,-0.11001563)"><path d="M185.546997,0.439 c0,0.192 -0.955,0.256 -2.121,0.143 c-1.166,-0.113 -2.224,-0.039 -2.35,0.165 c-0.126,0.204 -0.684,0.288 -1.239,0.188 c-0.556,-0.101 -1.29,0.043 -1.631,0.32 c-0.473,0.382 -0.551,0.386 -0.328,0.015 c0.161,-0.269 0.107,-0.489 -0.121,-0.489 c-0.227,0 -0.413,0.178 -0.413,0.395 c0,0.234 -0.598,0.309 -1.465,0.184 c-1.109,-0.161 -1.702,-0.02 -2.441,0.579 l-0.977,0.79 l0.956,0.264 c0.885,0.244 0.9,0.285 0.195,0.561 c-0.712,0.278 -0.706,0.299 0.095,0.325 c0.471,0.015 0.982,0.23 1.135,0.478 c0.183,0.297 0.091,0.354 -0.27,0.167 c-0.302,-0.157 -0.241,-0.033 0.135,0.275 c0.376,0.308 0.682,0.717 0.681,0.908 c-0.001,0.191 0.658,0.941 1.465,1.665 c0.807,0.725 1.23,1.187 0.94,1.027 c-0.426,-0.234 -0.442,-0.131 -0.084,0.538 c0.244,0.456 0.613,0.829 0.82,0.829 c0.208,0 0.377,0.263 0.377,0.586 c0,0.325 0.347,0.586 0.782,0.586 c0.429,0 0.753,0.131 0.719,0.292 c-0.122,0.574 0.54,1.652 0.884,1.44 c0.192,-0.119 0.35,-0.014 0.35,0.233 c0,0.246 0.316,0.74 0.702,1.097 c0.455,0.42 0.489,0.53 0.097,0.312 c-0.332,-0.185 0.099,0.325 0.958,1.133 c0.86,0.808 1.316,1.328 1.014,1.155 c-0.368,-0.211 -0.457,-0.166 -0.27,0.137 c0.154,0.248 0.562,0.451 0.907,0.451 c0.345,0 0.518,0.11 0.383,0.244 c-0.372,0.373 0.845,2.49 1.432,2.49 c0.283,0 0.85,0.395 1.259,0.879 l0.744,0.879 l-0.936,-0.782 c-0.676,-0.564 -0.884,-0.618 -0.75,-0.195 c0.102,0.322 0.582,0.785 1.066,1.029 c0.485,0.244 1.086,0.675 1.337,0.958 c0.284,0.321 0.174,0.301 -0.292,-0.053 c-0.703,-0.533 -0.72,-0.514 -0.28,0.312 c0.258,0.484 0.699,0.879 0.98,0.879 c0.282,0 0.847,0.393 1.256,0.872 c0.447,0.524 0.497,0.683 0.126,0.397 c-0.5,-0.384 -0.619,-0.364 -0.619,0.105 c0,0.531 0.388,0.744 1.14,0.626 c0.161,-0.026 0.249,0.165 0.195,0.424 c-0.054,0.259 0.122,0.5 0.39,0.537 c0.269,0.037 0.598,0.088 0.732,0.115 c0.134,0.027 0.024,0.313 -0.243,0.635 c-0.478,0.575 -0.143,0.805 0.908,0.623 c0.177,-0.031 0.21,0.124 0.074,0.344 c-0.136,0.22 -0.017,0.403 0.264,0.406 c0.388,0.005 0.398,0.079 0.039,0.307 c-0.339,0.215 -0.244,0.443 0.334,0.804 c0.665,0.415 0.752,0.413 0.495,-0.014 c-0.247,-0.41 -0.175,-0.406 0.346,0.016 c0.361,0.293 0.561,0.687 0.444,0.875 c-0.117,0.189 0.229,0.784 0.768,1.323 c0.539,0.539 0.768,0.985 0.509,0.991 c-0.259,0.005 0.013,0.31 0.604,0.676 c0.591,0.366 1.074,0.966 1.074,1.334 c0,0.367 0.203,0.793 0.451,0.946 c0.299,0.185 0.344,0.106 0.135,-0.232 c-0.209,-0.339 -0.163,-0.418 0.135,-0.233 c0.248,0.153 0.451,0.51 0.451,0.794 c0,0.283 0.396,0.808 0.879,1.167 c0.483,0.358 0.615,0.543 0.293,0.41 c-0.322,-0.133 -0.071,0.198 0.559,0.736 c0.63,0.539 1.19,1.283 1.244,1.654 c0.055,0.371 0.579,1.057 1.164,1.524 c0.586,0.467 0.946,1.042 0.8,1.278 c-0.145,0.236 0.129,0.704 0.61,1.041 c0.588,0.412 0.686,0.617 0.3,0.627 c-0.401,0.009 -0.338,0.158 0.206,0.488 c0.429,0.261 0.799,0.694 0.82,0.963 c0.086,1.07 0.186,1.226 0.943,1.466 c0.433,0.138 0.693,0.402 0.578,0.589 c-0.115,0.186 0.074,0.497 0.42,0.69 c0.346,0.194 0.621,0.465 0.612,0.604 c-0.061,0.908 0.867,2.627 1.164,2.157 c0.252,-0.397 0.347,-0.406 0.388,-0.038 c0.169,1.502 1.044,3.15 1.922,3.62 c0.488,0.261 0.741,0.678 0.613,1.011 c-0.12,0.312 0.115,0.851 0.521,1.199 c0.407,0.348 0.655,0.853 0.552,1.121 c-0.103,0.268 0.199,0.759 0.671,1.089 c0.495,0.347 0.766,0.845 0.64,1.174 c-0.139,0.363 0.08,0.651 0.599,0.787 c0.69,0.18 0.739,0.309 0.315,0.82 c-0.42,0.506 -0.395,0.605 0.154,0.605 c0.362,0 0.549,0.176 0.416,0.391 c-0.133,0.215 -0.077,0.391 0.123,0.391 c0.336,-0.001 1.026,2.157 0.906,2.832 c-0.029,0.161 0.221,0.293 0.556,0.293 c0.335,0 0.512,0.157 0.393,0.349 c-0.119,0.193 0.067,0.458 0.412,0.591 c0.508,0.195 0.536,0.351 0.145,0.822 c-0.398,0.479 -0.354,0.582 0.249,0.587 c0.557,0.005 0.606,0.086 0.203,0.341 c-0.413,0.262 -0.331,0.472 0.38,0.97 c0.592,0.415 0.708,0.639 0.333,0.645 c-0.395,0.006 -0.3,0.221 0.3,0.684 c0.482,0.371 0.945,1.202 1.029,1.846 c0.197,1.52 0.862,3.173 1.411,3.513 c0.31,0.192 0.289,0.446 -0.074,0.892 c-0.435,0.537 -0.407,0.587 0.202,0.359 c0.576,-0.216 0.663,-0.12 0.462,0.512 c-0.141,0.446 -0.069,0.779 0.17,0.779 c0.229,0 0.417,0.317 0.417,0.703 c0,0.387 0.22,0.94 0.488,1.229 c0.391,0.421 0.391,0.471 0,0.251 C225.220001,82.109001 225,82.152 225,82.357002 c0,0.205 0.284,0.481 0.63,0.614 c0.412,0.158 0.557,0.523 0.418,1.056 c-0.249,0.951 0.066,1.992 0.519,1.712 c0.172,-0.106 0.221,0.159 0.109,0.589 c-0.113,0.43 -0.014,0.781 0.219,0.781 c0.233,0 0.323,0.264 0.199,0.586 c-0.123,0.323 -0.035,0.586 0.196,0.586 c0.231,0 0.319,0.264 0.195,0.586 c-0.14,0.364 0.002,0.586 0.375,0.586 c0.33,0 0.876,0.276 1.214,0.614 c0.393,0.393 0.614,0.446 0.614,0.147 c0,-0.354 0.139,-0.35 0.58,0.016 c0.32,0.265 0.847,0.38 1.172,0.256 c0.325,-0.125 0.591,-0.067 0.591,0.129 c0,0.196 0.352,0.288 0.782,0.205 c0.429,-0.082 0.781,0.01 0.781,0.206 c0,0.196 0.263,0.255 0.586,0.131 c0.371,-0.142 0.586,0.005 0.586,0.403 c0,0.345 0.263,0.628 0.586,0.628 c0.889,0 0.884,-0.002 2.02,0.588 c0.597,0.309 1.244,0.408 1.475,0.225 c0.226,-0.18 0.762,-0.169 1.192,0.024 c0.72,0.323 0.712,0.337 -0.098,0.184 c-0.483,-0.092 -0.878,-0.09 -0.878,0.004 c0,0.453 1.781,0.793 2.044,0.39 c0.179,-0.273 0.29,-0.17 0.293,0.273 c0.004,0.497 0.271,0.69 0.885,0.64 c1.455,-0.118 1.914,-0.005 1.66,0.407 c-0.32,0.518 1.663,1.254 2.589,0.96 c0.539,-0.172 0.668,-0.077 0.498,0.365 c-0.167,0.436 -0.018,0.555 0.558,0.445 c0.456,-0.088 0.882,0.1 1.017,0.45 c0.143,0.374 0.525,0.525 1.008,0.399 c0.477,-0.125 0.68,-0.047 0.526,0.201 c-0.139,0.227 -0.014,0.327 0.285,0.227 c0.294,-0.098 0.802,0.151 1.129,0.553 c0.326,0.402 0.989,0.761 1.472,0.797 c0.484,0.036 0.879,0.185 0.879,0.331 c0,0.146 0.273,0.37 0.606,0.498 c0.412,0.158 0.514,0.078 0.316,-0.251 c-0.367,-0.612 1.113,0.511 1.53,1.16 c0.167,0.26 0.545,0.379 0.839,0.266 c0.295,-0.113 0.669,0.01 0.832,0.272 c0.188,0.306 0.132,0.377 -0.156,0.199 c-0.248,-0.153 -0.451,-0.113 -0.451,0.09 c0,0.202 0.352,0.46 0.782,0.572 c0.43,0.113 0.684,0.047 0.565,-0.145 c-0.119,-0.193 0.056,-0.246 0.388,-0.118 c0.332,0.127 0.518,0.371 0.413,0.54 c-0.193,0.314 0.516,0.722 1.102,0.634 c0.176,-0.026 0.493,0.26 0.703,0.636 c0.21,0.376 0.725,0.684 1.144,0.684 c0.419,0 0.762,0.175 0.762,0.39 c0,0.215 0.258,0.391 0.572,0.391 c0.315,0 0.763,0.356 0.997,0.792 c0.233,0.436 0.591,0.689 0.795,0.563 c0.204,-0.126 0.371,-0.033 0.371,0.207 c0,0.24 0.163,0.336 0.363,0.212 c0.2,-0.123 0.491,-0.019 0.647,0.233 c0.176,0.285 0.113,0.353 -0.169,0.178 c-0.248,-0.153 -0.451,-0.104 -0.451,0.109 c0,0.4 1.51,1.053 2.08,0.898 c0.177,-0.047 0.222,0.075 0.1,0.273 c-0.193,0.312 0.626,0.893 1.401,0.993 c0.143,0.019 0.407,0.194 0.586,0.39 c0.189,0.206 0.121,0.237 -0.163,0.074 c-0.268,-0.154 -0.488,-0.095 -0.488,0.133 c0,0.227 0.269,0.414 0.598,0.414 c0.329,0 0.694,0.25 0.812,0.555 c0.117,0.306 0.488,0.661 0.824,0.79 c0.444,0.171 0.515,0.094 0.263,-0.281 c-0.192,-0.283 -0.041,-0.18 0.335,0.23 c0.376,0.41 0.688,0.594 0.692,0.409 c0.005,-0.185 0.288,0.229 0.629,0.92 c0.563,1.143 1.795,1.963 2.614,1.741 c0.177,-0.048 0.234,0.056 0.126,0.23 c-0.276,0.447 7.357,7.978 7.719,7.616 c0.163,-0.163 0.254,-0.121 0.202,0.094 c-0.153,0.634 0.472,1.772 0.847,1.54 c0.19,-0.117 0.229,0.09 0.087,0.461 c-0.204,0.531 -0.109,0.616 0.45,0.402 c0.577,-0.221 0.624,-0.17 0.253,0.277 c-0.426,0.514 0.113,1.053 1.192,1.193 c0.369,0.047 0.912,0.63 0.912,0.977 c0,0.161 0.527,0.784 1.171,1.384 c0.645,0.599 0.865,0.871 0.489,0.603 c-0.492,-0.35 -0.684,-0.361 -0.684,-0.039 c0,0.246 0.44,0.615 0.977,0.819 c0.537,0.205 0.976,0.474 0.976,0.6 c0,0.125 -0.176,0.119 -0.39,-0.014 c-0.215,-0.132 -0.391,-0.065 -0.391,0.151 c0,0.216 0.483,0.629 1.074,0.918 c0.611,0.299 1.03,0.792 0.971,1.145 c-0.057,0.341 0.403,1.163 1.022,1.826 c0.62,0.664 1.037,1.296 0.927,1.406 c-0.11,0.11 0.088,0.31 0.44,0.445 c0.352,0.135 0.542,0.404 0.422,0.598 c-0.12,0.194 0.056,0.458 0.39,0.586 c0.335,0.129 0.518,0.38 0.408,0.559 c-0.111,0.18 0.053,0.469 0.365,0.643 c0.311,0.174 0.581,0.493 0.599,0.708 c0.086,1.037 0.523,1.758 1.067,1.758 c0.37,-10e-4 0.516,0.222 0.381,0.575 c-0.122,0.318 0.078,0.75 0.446,0.965 c0.367,0.214 0.505,0.394 0.307,0.401 c-0.199,0.006 0.065,0.479 0.586,1.051 c0.52,0.572 0.729,0.914 0.463,0.761 c-0.326,-0.188 -0.408,-0.081 -0.251,0.328 c0.128,0.333 0.433,0.609 0.679,0.612 c0.245,0.003 0.183,0.176 -0.14,0.385 c-0.5,0.323 -0.486,0.379 0.098,0.384 c0.376,0.004 0.642,0.138 0.591,0.299 c-0.152,0.478 0.939,2.832 1.312,2.832 c0.189,0 0.322,0.132 0.297,0.293 c-0.123,0.779 0.085,1.292 0.437,1.074 c0.214,-0.132 0.39,-0.055 0.39,0.173 c0,0.227 -0.195,0.413 -0.434,0.413 c-0.238,0 -0.019,0.346 0.489,0.769 c0.507,0.422 0.701,0.774 0.43,0.781 c-0.388,0.01 -0.392,0.172 -0.019,0.769 c0.259,0.416 0.642,0.65 0.851,0.522 c0.218,-0.135 0.273,0.04 0.129,0.416 c-0.137,0.357 -0.085,0.65 0.117,0.65 c0.201,0 0.254,0.292 0.116,0.65 c-0.155,0.404 -0.093,0.553 0.164,0.395 c0.487,-0.301 0.866,0.907 0.715,2.281 c-0.063,0.575 0.093,0.971 0.384,0.971 c0.27,-10e-4 0.601,0.288 0.736,0.641 c0.215,0.558 0.157,0.572 -0.446,0.109 c-0.381,-0.292 -0.258,-0.044 0.274,0.551 c0.814,0.913 0.875,1.141 0.39,1.447 c-0.476,0.302 -0.45,0.366 0.15,0.371 c0.5,0.004 0.652,0.198 0.488,0.623 c-0.13,0.34 0.014,0.975 0.32,1.412 c0.306,0.437 0.452,1.067 0.324,1.4 c-0.148,0.385 -0.073,0.507 0.204,0.335 c0.287,-0.177 0.379,0.029 0.269,0.601 c-0.092,0.479 0.049,1.008 0.313,1.176 c0.375,0.238 0.376,0.307 0.006,0.312 c-0.274,0.003 -0.375,0.27 -0.239,0.625 c0.192,0.5 0.304,0.519 0.585,0.097 c0.219,-0.327 0.25,-0.099 0.084,0.612 c-0.192,0.823 -0.137,1.054 0.2,0.846 c0.335,-0.208 0.389,0.007 0.195,0.781 c-0.206,0.822 -0.151,0.995 0.241,0.753 c0.383,-0.237 0.45,-0.09 0.272,0.591 c-0.13,0.498 -0.044,1.264 0.19,1.702 c0.307,0.574 0.308,0.837 0.002,0.939 c-0.233,0.078 -0.322,0.409 -0.197,0.735 c0.186,0.485 0.295,0.498 0.596,0.072 c0.247,-0.35 0.288,-0.157 0.124,0.591 c-0.139,0.635 -0.049,1.347 0.211,1.66 c0.251,0.302 0.325,0.549 0.165,0.549 c-0.16,0 -0.05,0.297 0.245,0.661 c0.456,0.563 0.455,0.612 -0.013,0.33 c-0.404,-0.244 -0.461,-0.19 -0.216,0.207 c0.183,0.295 0.294,1.038 0.247,1.651 c-0.051,0.676 0.072,1.016 0.314,0.867 c0.22,-0.136 0.399,-0.061 0.399,0.167 c0,0.227 -0.219,0.416 -0.488,0.42 c-0.385,0.004 -0.386,0.071 -0.007,0.311 c0.264,0.168 0.406,0.693 0.315,1.166 c-0.091,0.473 -0.031,0.86 0.133,0.86 c0.164,0 0.27,0.835 0.235,1.856 c-0.035,1.02 0.035,2.031 0.156,2.246 c0.419,0.743 0.391,1.538 -0.073,2.112 c-0.362,0.449 -0.361,0.514 0.006,0.294 c0.463,-0.278 0.446,0.701 -0.055,3.171 c-0.115,0.564 -0.029,0.795 0.235,0.632 c0.421,-0.26 0.277,4.507 -0.192,6.389 c-0.121,0.483 -0.092,0.879 0.065,0.879 c0.488,0 0.442,1.717 -0.055,2.032 c-0.293,0.187 -0.311,0.302 -0.047,0.305 c0.43,0.006 0.495,1.073 0.109,1.771 c-0.117,0.211 -0.184,1.219 -0.149,2.239 c0.049,1.451 -0.071,1.857 -0.551,1.862 c-0.373,0.003 -0.453,0.118 -0.204,0.293 c0.43,0.3 0.637,2.849 0.221,2.71 c-0.406,-0.135 -0.498,0.278 -0.221,1 c0.147,0.382 0.027,0.98 -0.268,1.344 c-0.457,0.564 -0.45,0.61 0.054,0.328 c0.459,-0.256 0.487,-0.22 0.128,0.168 c-0.252,0.273 -0.365,0.738 -0.251,1.034 c0.114,0.296 0.032,0.539 -0.18,0.539 c-0.213,0 -0.479,0.351 -0.592,0.781 c-0.122,0.468 -0.046,0.684 0.189,0.539 c0.235,-0.145 0.221,0.08 -0.036,0.56 c-0.237,0.441 -0.43,1.166 -0.43,1.609 c0,0.444 -0.197,0.807 -0.438,0.807 c-0.307,0 -0.295,0.173 0.038,0.575 c0.384,0.462 0.344,0.709 -0.199,1.253 c-0.436,0.435 -0.52,0.729 -0.234,0.824 c0.243,0.081 0.443,0.319 0.443,0.529 c0,0.21 -0.183,0.268 -0.407,0.13 c-0.266,-0.164 -0.314,0.117 -0.138,0.816 c0.207,0.827 0.152,0.996 -0.246,0.75 c-0.372,-0.229 -0.445,-0.137 -0.265,0.333 c0.137,0.357 0.104,0.65 -0.074,0.65 c-0.179,0 -0.236,0.465 -0.127,1.034 c0.15,0.786 0.074,0.959 -0.316,0.718 c-0.366,-0.227 -0.445,-0.14 -0.277,0.299 c0.13,0.339 -0.083,1.245 -0.475,2.013 c-0.392,0.768 -0.529,1.283 -0.305,1.144 c0.263,-0.162 0.285,-0.057 0.064,0.298 c-0.188,0.302 -0.379,0.795 -0.425,1.095 c-0.045,0.301 -0.293,0.677 -0.549,0.836 c-0.257,0.158 -0.346,0.483 -0.198,0.722 c0.147,0.239 0.063,0.435 -0.187,0.435 c-0.251,0 -0.355,0.263 -0.231,0.585 c0.124,0.323 0.075,0.586 -0.108,0.586 c-0.183,0 -0.441,0.308 -0.574,0.684 c-0.133,0.376 -0.342,0.947 -0.466,1.27 c-0.2,0.52 -0.179,0.52 0.19,0 c0.265,-0.376 0.416,-0.416 0.42,-0.112 c0.003,0.261 -0.35,0.665 -0.786,0.899 c-0.436,0.233 -0.689,0.591 -0.563,0.795 c0.126,0.204 -10e-4,0.373 -0.282,0.377 c-0.372,0.004 -0.351,0.109 0.075,0.384 c0.452,0.292 0.464,0.38 0.055,0.385 c-0.309,0.003 -0.436,0.249 -0.305,0.592 c0.124,0.322 0.044,0.586 -0.176,0.586 c-0.221,0 -0.302,0.161 -0.18,0.359 c0.122,0.197 -0.013,0.594 -0.301,0.882 c-0.288,0.288 -0.441,0.786 -0.341,1.106 c0.1,0.32 0.042,0.452 -0.129,0.292 c-0.406,-0.379 -1.477,1.149 -1.162,1.658 c0.132,0.215 0.044,0.39 -0.196,0.39 c-0.24,0 -0.328,0.176 -0.195,0.391 c0.133,0.215 0.045,0.391 -0.195,0.391 c-0.241,0 -0.34,0.157 -0.221,0.349 c0.119,0.193 -0.047,0.451 -0.368,0.574 c-0.321,0.123 -0.583,0.416 -0.583,0.65 c0,0.234 0.219,0.314 0.488,0.178 c0.268,-0.136 0.181,0.005 -0.195,0.313 c-0.376,0.309 -0.684,0.859 -0.684,1.224 c0,0.365 -0.176,0.555 -0.391,0.422 c-0.356,-0.22 -0.563,0.309 -0.429,1.096 c0.029,0.173 -0.214,0.696 -0.54,1.161 c-0.411,0.588 -0.601,0.671 -0.618,0.272 c-0.014,-0.317 -0.216,-0.136 -0.449,0.401 c-0.438,1.007 -0.536,1.362 -0.639,2.311 c-0.032,0.305 -0.168,0.445 -0.301,0.312 c-0.342,-0.343 -1.416,0.812 -1.152,1.239 c0.12,0.194 -0.056,0.458 -0.391,0.587 c-0.334,0.128 -0.499,0.41 -0.365,0.626 c0.134,0.217 -0.046,0.394 -0.399,0.394 c-0.352,0 -0.569,0.216 -0.481,0.48 c0.088,0.265 -0.125,0.748 -0.474,1.075 c-0.518,0.484 -0.523,0.531 -0.03,0.252 c0.332,-0.188 0.132,0.101 -0.445,0.643 c-0.577,0.542 -0.943,1.091 -0.814,1.221 c0.13,0.129 0.02,0.235 -0.243,0.235 c-0.263,0 -0.383,0.156 -0.265,0.346 c0.118,0.191 -0.081,0.586 -0.442,0.879 c-0.565,0.459 -0.609,0.451 -0.312,-0.053 c0.301,-0.51 0.258,-0.515 -0.334,-0.034 c-0.534,0.433 -0.571,0.62 -0.172,0.872 c0.384,0.244 0.351,0.323 -0.135,0.328 c-0.603,0.006 -1.316,1.015 -1.179,1.666 c0.035,0.161 -0.191,0.293 -0.5,0.293 c-0.31,0 -0.689,0.203 -0.842,0.451 c-0.183,0.297 -0.091,0.353 0.27,0.166 c0.302,-0.157 0.161,0.057 -0.314,0.477 c-0.474,0.419 -0.752,0.872 -0.618,1.006 c0.134,0.134 -0.02,0.244 -0.343,0.244 c-0.739,0 -2.775,2.246 -2.475,2.731 c0.122,0.198 -0.267,0.617 -0.864,0.931 c-0.966,0.506 -5.746,4.932 -5.328,4.932 c0.092,0 -0.018,0.345 -0.244,0.766 c-0.226,0.422 -0.655,0.673 -0.955,0.558 c-0.323,-0.124 -0.648,0.117 -0.799,0.592 c-0.14,0.441 -0.449,0.762 -0.687,0.712 c-0.238,-0.049 -0.664,0.35 -0.947,0.887 c-0.283,0.537 -0.517,0.825 -0.52,0.64 c-0.003,-0.184 -0.371,0.079 -0.817,0.586 c-0.446,0.508 -0.7,0.705 -0.566,0.439 c0.159,-0.313 0.041,-0.405 -0.336,-0.261 c-0.34,0.131 -0.483,0.48 -0.344,0.841 c0.157,0.411 0.083,0.522 -0.223,0.333 c-0.487,-0.301 -1.626,0.602 -1.626,1.288 c0,0.224 -0.246,0.312 -0.547,0.197 c-0.3,-0.116 -0.679,0.005 -0.841,0.268 c-0.207,0.334 -0.13,0.378 0.253,0.147 c0.466,-0.281 0.469,-0.232 0.016,0.326 c-0.293,0.361 -0.688,0.56 -0.879,0.442 c-0.19,-0.118 -0.346,0.002 -0.346,0.265 c0,0.263 -0.106,0.373 -0.235,0.243 c-0.13,-0.129 -0.679,0.237 -1.221,0.814 c-0.542,0.577 -0.831,0.777 -0.643,0.445 c0.308,-0.545 0.283,-0.545 -0.258,0 c-0.33,0.332 -0.857,0.656 -1.172,0.719 c-0.315,0.062 -0.9,0.502 -1.3,0.976 c-0.4,0.474 -0.794,0.823 -0.875,0.775 c-0.338,-0.2 -1.306,0.391 -1.124,0.686 c0.212,0.342 -1.189,0.947 -2.57,1.11 c-0.227,0.027 -0.316,0.207 -0.197,0.399 c0.282,0.457 -0.922,1.034 -2.44,1.168 c-0.286,0.025 -0.387,0.245 -0.229,0.502 c0.19,0.306 0.071,0.375 -0.361,0.21 c-0.413,-0.159 -0.789,0.022 -1.047,0.505 c-0.235,0.439 -0.643,0.659 -0.982,0.529 c-0.319,-0.122 -0.58,-0.017 -0.58,0.233 c0,0.251 -0.176,0.347 -0.391,0.214 c-0.215,-0.133 -0.39,-0.045 -0.39,0.196 c0,0.24 -0.176,0.328 -0.391,0.195 c-0.215,-0.133 -0.391,-0.045 -0.391,0.195 c0,0.24 -0.176,0.328 -0.39,0.195 c-0.215,-0.132 -0.391,-0.055 -0.391,0.173 c0,0.227 -0.132,0.393 -0.293,0.367 c-0.812,-0.128 -1.286,0.094 -1.043,0.488 c0.165,0.267 0.06,0.37 -0.266,0.261 c-0.297,-0.099 -0.775,0.056 -1.063,0.344 c-0.288,0.288 -0.685,0.423 -0.882,0.301 c-0.198,-0.122 -0.359,-0.041 -0.359,0.18 c0,0.22 -0.264,0.3 -0.586,0.176 c-0.322,-0.124 -0.586,-0.02 -0.586,0.231 c0,0.25 -0.139,0.37 -0.308,0.265 c-0.368,-0.227 -0.389,3.293 -0.024,3.855 c0.14,0.215 0.187,0.962 0.105,1.66 c-0.085,0.728 0.028,1.27 0.266,1.27 c0.256,0 0.316,0.445 0.156,1.172 c-0.164,0.747 -0.102,1.172 0.172,1.172 c0.245,0 0.353,0.419 0.252,0.976 c-0.097,0.537 -0.018,0.977 0.176,0.977 c0.194,0 0.25,0.266 0.125,0.591 c-0.124,0.325 -0.009,0.852 0.256,1.171 c0.345,0.417 0.355,0.581 0.035,0.581 c-0.276,0 -0.182,0.406 0.245,1.057 c0.381,0.582 0.648,1.109 0.595,1.172 c-0.054,0.063 -0.078,0.247 -0.053,0.408 c0.025,0.161 0.01,0.62 -0.032,1.019 c-0.047,0.449 0.091,0.623 0.361,0.456 c0.303,-0.187 0.36,0.042 0.185,0.738 c-0.179,0.714 -0.097,1.012 0.278,1.016 c0.41,0.004 0.397,0.092 -0.056,0.384 c-0.5,0.324 -0.486,0.38 0.098,0.385 c0.781,0.007 0.931,1.013 0.195,1.31 c-0.296,0.119 -0.224,0.209 0.183,0.228 c0.461,0.021 0.593,0.234 0.422,0.681 c-0.158,0.411 -0.095,0.554 0.171,0.39 c0.272,-0.169 0.343,0.037 0.2,0.583 c-0.17,0.651 -0.095,0.767 0.33,0.511 c0.468,-0.282 0.47,-0.234 0.014,0.33 c-0.488,0.601 -0.346,0.831 0.438,0.707 c0.452,-0.072 0.347,0.52 -0.195,1.105 c-0.4,0.431 -0.355,0.479 0.25,0.264 c0.627,-0.222 0.664,-0.171 0.245,0.333 c-0.442,0.533 -0.295,0.751 0.441,0.655 c0.139,-0.018 0.163,0.313 0.052,0.735 c-0.11,0.422 -0.042,0.768 0.153,0.768 c0.194,0 0.382,0.393 0.418,0.873 c0.037,0.48 0.24,0.931 0.452,1.002 c0.213,0.07 0.278,0.41 0.146,0.753 c-0.159,0.415 -0.086,0.53 0.218,0.342 c0.251,-0.155 0.457,-0.11 0.457,0.099 c0,0.21 -0.184,0.442 -0.408,0.517 c-0.225,0.075 -0.064,0.505 0.361,0.961 c0.569,0.61 0.654,0.939 0.329,1.264 c-0.324,0.325 -0.277,0.439 0.184,0.439 c0.722,0 1.308,1.165 0.596,1.184 c-0.281,0.007 -0.202,0.221 0.194,0.521 c0.526,0.4 0.568,0.612 0.195,0.988 c-0.374,0.376 -0.316,0.417 0.273,0.193 c0.493,-0.188 0.659,-0.141 0.487,0.137 c-0.367,0.594 0.129,1.712 0.624,1.406 c0.253,-0.156 0.293,-0.063 0.105,0.242 c-0.178,0.288 -0.081,0.637 0.232,0.835 c0.446,0.282 0.438,0.344 -0.047,0.36 c-0.501,0.015 -0.496,0.087 0.039,0.494 c0.658,0.502 0.742,0.69 0.742,1.671 c0,0.36 0.184,0.495 0.451,0.33 c0.266,-0.164 0.345,-0.108 0.194,0.137 c-0.34,0.549 0.12,1.714 0.568,1.437 c0.306,-0.189 0.529,0.648 0.396,1.491 c-0.026,0.161 0.124,0.293 0.332,0.293 c0.208,-10e-4 0.286,0.24 0.173,0.535 c-0.113,0.295 0.086,0.648 0.443,0.785 c0.376,0.144 0.555,0.494 0.425,0.831 c-0.122,0.321 -0.053,0.583 0.155,0.583 c0.208,0 0.379,0.351 0.379,0.781 c0,0.43 0.186,0.781 0.413,0.781 c0.228,0 0.305,0.176 0.173,0.391 c-0.133,0.215 -0.061,0.391 0.16,0.391 c0.22,0 0.308,0.241 0.195,0.535 c-0.113,0.295 0.029,0.778 0.315,1.074 c0.286,0.297 0.512,0.803 0.503,1.125 c-0.019,0.677 0.66,1.552 1.032,1.328 c0.349,-0.21 0.777,1.005 0.507,1.442 c-0.121,0.195 -0.023,0.355 0.217,0.355 c0.24,0 0.328,0.176 0.196,0.391 c-0.133,0.214 -0.059,0.39 0.164,0.39 c0.223,0 0.774,0.722 1.224,1.604 c0.449,0.881 0.631,1.488 0.403,1.346 c-0.254,-0.156 -0.325,-0.021 -0.184,0.348 c0.128,0.332 0.371,0.518 0.541,0.413 c0.17,-0.105 0.413,0.081 0.541,0.413 c0.131,0.342 0.066,0.502 -0.15,0.368 c-0.217,-0.133 -0.281,0.027 -0.149,0.371 c0.128,0.333 0.433,0.609 0.679,0.612 c0.245,0.003 0.183,0.176 -0.14,0.385 c-0.497,0.321 -0.478,0.379 0.121,0.384 c0.389,0.004 0.602,0.176 0.474,0.383 c-0.128,0.207 0.111,0.719 0.53,1.139 c0.42,0.42 0.661,0.865 0.535,0.991 c-0.125,0.125 -0.012,0.228 0.251,0.228 c0.264,0 0.385,0.152 0.27,0.338 c-0.115,0.186 0.141,0.655 0.568,1.042 c0.47,0.426 0.69,0.98 0.556,1.403 c-0.141,0.443 0.057,0.874 0.541,1.176 c0.44,0.274 0.669,0.723 0.541,1.057 c-0.123,0.321 -0.053,0.476 0.156,0.346 c0.209,-0.128 0.603,0.125 0.877,0.563 c0.344,0.551 0.356,0.71 0.039,0.514 c-0.645,-0.399 0.26,1.307 1.299,2.447 c0.44,0.484 0.648,0.879 0.462,0.879 c-0.186,0 0.003,0.277 0.42,0.615 c0.417,0.338 0.539,0.504 0.27,0.368 c-0.74,-0.375 -0.585,0.351 0.322,1.504 c0.73,0.928 1.875,1.507 1.372,0.693 c-0.114,-0.184 0.202,-0.291 0.702,-0.236 c0.519,0.057 1.126,-0.202 1.417,-0.605 c0.279,-0.388 0.744,-0.614 1.033,-0.504 c0.289,0.111 0.526,-0.003 0.526,-0.254 c0,-0.25 0.175,-0.346 0.39,-0.214 c0.215,0.133 0.391,0.075 0.391,-0.13 c0,-0.205 0.273,-0.477 0.606,-0.605 c0.353,-0.135 0.505,-0.068 0.363,0.161 c-0.133,0.216 0.378,0.097 1.135,-0.265 c0.758,-0.361 1.287,-0.803 1.176,-0.983 c-0.111,-0.179 -0.03,-0.326 0.18,-0.326 c0.209,0 0.47,0.22 0.578,0.488 c0.108,0.269 0.214,0.137 0.234,-0.293 c0.03,-0.647 0.1,-0.681 0.407,-0.195 c0.321,0.507 0.465,0.483 1.068,-0.174 c0.677,-0.737 0.674,-0.743 -0.083,-0.195 c-0.72,0.52 -0.74,0.511 -0.249,-0.115 c0.293,-0.374 0.683,-0.586 0.868,-0.472 c0.447,0.276 2.701,-0.909 2.701,-1.421 c0,-0.222 0.176,-0.295 0.391,-0.162 c0.215,0.133 0.39,0.061 0.39,-0.16 c0,-0.221 0.239,-0.31 0.532,-0.198 c0.292,0.112 1.083,-0.26 1.757,-0.828 c0.793,-0.667 1.236,-0.847 1.252,-0.509 c0.013,0.288 0.175,0.15 0.359,-0.306 c0.244,-0.603 0.617,-0.797 1.372,-0.714 c0.747,0.082 0.98,-0.036 0.833,-0.421 c-0.14,-0.366 -0.006,-0.459 0.425,-0.293 c0.391,0.15 0.532,0.084 0.373,-0.175 c-0.271,-0.437 0.594,-0.942 1.847,-1.077 c0.408,-0.044 0.988,-0.415 1.288,-0.824 c0.3,-0.41 0.757,-0.762 1.016,-0.783 c0.97,-0.078 1.823,-0.645 1.575,-1.046 c-0.162,-0.263 -0.012,-0.322 0.408,-0.161 c0.411,0.158 0.749,0.035 0.886,-0.322 c0.122,-0.317 0.361,-0.491 0.531,-0.386 c0.169,0.105 0.417,-0.092 0.549,-0.437 c0.151,-0.393 0.527,-0.554 1.004,-0.429 c0.525,0.137 0.839,-0.041 1.008,-0.571 c0.134,-0.424 0.339,-0.676 0.455,-0.559 c0.342,0.341 1.715,-0.547 1.466,-0.949 c-0.124,-0.202 0.034,-0.267 0.351,-0.145 c0.35,0.134 0.831,-0.166 1.222,-0.762 c0.354,-0.541 0.876,-0.895 1.16,-0.786 c0.284,0.109 0.798,-0.204 1.142,-0.696 c0.416,-0.593 0.632,-0.701 0.641,-0.32 c0.008,0.354 0.202,0.236 0.504,-0.307 c0.554,-0.997 2.55,-2.575 2.057,-1.626 c-0.158,0.305 0.168,0.028 0.726,-0.616 c0.558,-0.645 1.186,-1.128 1.396,-1.075 c0.209,0.054 0.381,-0.088 0.381,-0.316 c0,-0.227 0.176,-0.305 0.391,-0.172 c0.214,0.133 0.39,-0.051 0.39,-0.409 c0,-0.425 0.209,-0.571 0.601,-0.42 c0.389,0.149 0.725,-0.077 0.952,-0.642 c0.193,-0.48 0.362,-0.702 0.376,-0.493 c0.013,0.209 0.304,-0.019 0.646,-0.507 c0.497,-0.71 0.732,-0.794 1.18,-0.422 c0.454,0.377 0.514,0.344 0.314,-0.177 c-0.165,-0.43 -0.04,-0.641 0.382,-0.641 c0.345,0 0.627,-0.274 0.627,-0.609 c0,-0.335 0.162,-0.509 0.359,-0.387 c0.198,0.122 0.967,-0.351 1.709,-1.051 c0.743,-0.7 1.504,-1.335 1.692,-1.41 c0.188,-0.075 0.288,-0.324 0.222,-0.554 c-0.066,-0.23 0.164,-0.183 0.511,0.105 c0.53,0.44 0.611,0.435 0.51,-0.032 c-0.07,-0.323 0.124,-0.5 0.466,-0.424 c0.322,0.072 0.46,0.005 0.306,-0.149 c-0.154,-0.154 0.154,-0.621 0.684,-1.038 c0.53,-0.416 0.963,-1.008 0.963,-1.315 c0,-0.307 0.138,-0.514 0.307,-0.46 c0.168,0.054 0.827,-0.438 1.465,-1.093 c0.818,-0.842 0.935,-0.899 0.396,-0.195 c-0.419,0.547 0.46,-0.231 1.953,-1.73 c1.494,-1.5 2.836,-2.69 2.984,-2.645 c0.148,0.044 0.375,-0.251 0.504,-0.657 c0.265,-0.837 3.494,-3.934 4.101,-3.934 c0.22,0 0.36,-0.132 0.311,-0.293 c-0.049,-0.161 1.137,-1.514 2.637,-3.008 c1.499,-1.493 2.277,-2.372 1.73,-1.953 c-0.704,0.539 -0.647,0.422 0.195,-0.396 c0.655,-0.638 1.147,-1.297 1.093,-1.465 c-0.054,-0.169 0.151,-0.307 0.455,-0.307 c0.693,0 3.043,-2.914 2.66,-3.298 c-0.156,-0.155 -0.107,-0.224 0.108,-0.152 c0.215,0.071 0.447,0.01 0.515,-0.137 c0.069,-0.147 0.73,-0.909 1.469,-1.692 c0.739,-0.783 1.243,-1.586 1.121,-1.784 c-0.122,-0.197 0.052,-0.359 0.387,-0.359 c0.335,0 0.609,-0.282 0.609,-0.627 c0,-0.433 0.208,-0.548 0.672,-0.37 c0.369,0.141 0.547,0.132 0.394,-0.02 c-0.153,-0.153 -0.06,-0.548 0.207,-0.877 c0.401,-0.495 0.383,-0.547 -0.101,-0.3 c-0.322,0.165 -0.245,0.022 0.172,-0.316 c0.417,-0.338 0.593,-0.626 0.391,-0.639 c-0.202,-0.014 0.025,-0.183 0.505,-0.376 c0.565,-0.227 0.791,-0.563 0.642,-0.952 c-0.151,-0.392 -0.005,-0.601 0.42,-0.601 c0.358,0 0.542,-0.176 0.409,-0.39 c-0.133,-0.215 -0.055,-0.391 0.172,-0.391 c0.228,0 0.37,-0.172 0.316,-0.381 c-0.053,-0.21 0.43,-0.838 1.075,-1.396 c0.644,-0.558 0.934,-0.892 0.643,-0.742 c-0.372,0.191 -0.336,-0.022 0.121,-0.72 c0.357,-0.546 0.928,-1.099 1.268,-1.23 c0.34,-0.13 0.507,-0.349 0.37,-0.486 c-0.137,-0.136 0.113,-0.502 0.556,-0.812 c0.443,-0.31 0.716,-0.796 0.607,-1.08 c-0.109,-0.284 0.245,-0.806 0.786,-1.16 c0.596,-0.391 0.896,-0.872 0.762,-1.222 c-0.122,-0.317 -0.057,-0.475 0.145,-0.351 c0.202,0.125 0.557,-0.13 0.791,-0.565 c0.233,-0.436 0.285,-0.798 0.117,-0.804 c-0.169,-0.007 10e-4,-0.191 0.377,-0.41 c0.376,-0.219 0.683,-0.741 0.683,-1.16 c0,-0.419 0.395,-1.157 0.877,-1.639 c0.482,-0.482 0.822,-1.115 0.755,-1.406 c-0.067,-0.292 0.048,-0.426 0.254,-0.298 c0.368,0.228 0.931,-0.668 1.006,-1.6 c0.021,-0.259 0.373,-0.716 0.783,-1.016 c0.409,-0.3 0.78,-0.88 0.824,-1.288 c0.12,-1.114 0.623,-2.128 0.954,-1.924 c0.375,0.232 1.266,-1.696 0.989,-2.143 c-0.114,-0.186 0.103,-0.519 0.484,-0.74 c0.38,-0.222 0.544,-0.409 0.364,-0.415 c-0.18,-0.007 0.136,-0.564 0.704,-1.239 c0.568,-0.674 0.94,-1.465 0.828,-1.757 c-0.112,-0.293 -0.023,-0.532 0.198,-0.532 c0.221,0 0.293,-0.175 0.16,-0.39 c-0.133,-0.215 -0.059,-0.391 0.164,-0.391 c0.223,0 0.774,-0.721 1.224,-1.603 c0.504,-0.987 0.619,-1.487 0.301,-1.3 c-0.285,0.167 -0.209,-0.049 0.167,-0.479 c0.377,-0.431 0.567,-0.9 0.423,-1.044 c-0.143,-0.144 -0.061,-0.261 0.183,-0.261 c0.253,0 0.336,-0.279 0.194,-0.65 c-0.149,-0.388 -0.092,-0.553 0.143,-0.408 c0.216,0.134 0.688,-0.377 1.049,-1.135 c0.362,-0.757 0.481,-1.268 0.265,-1.135 c-0.229,0.142 -0.296,-0.01 -0.161,-0.363 c0.128,-0.333 0.4,-0.606 0.605,-0.606 c0.205,0 0.263,-0.176 0.13,-0.391 c-0.132,-0.215 -0.036,-0.39 0.214,-0.39 c0.251,0 0.355,-0.264 0.231,-0.586 c-0.124,-0.323 -0.087,-0.586 0.081,-0.586 c0.169,0 0.606,-0.628 0.971,-1.395 c0.366,-0.767 0.503,-1.294 0.304,-1.171 c-0.198,0.123 -0.269,-0.127 -0.157,-0.554 c0.112,-0.428 0.389,-0.663 0.616,-0.523 c0.255,0.158 0.319,0.012 0.167,-0.384 c-0.135,-0.351 0.022,-0.906 0.349,-1.233 c0.327,-0.326 0.497,-0.751 0.379,-0.943 c-0.119,-0.192 0.049,-0.57 0.374,-0.84 c0.359,-0.298 0.494,-0.793 0.345,-1.265 c-0.18,-0.566 -0.112,-0.691 0.253,-0.466 c0.354,0.219 0.426,0.12 0.249,-0.342 c-0.137,-0.357 -0.079,-0.65 0.129,-0.65 c0.208,0 0.378,-0.439 0.378,-0.977 c0,-0.537 0.195,-0.976 0.433,-0.976 c0.237,0 0.331,-0.264 0.207,-0.586 c-0.123,-0.322 -0.034,-0.586 0.199,-0.586 c0.233,0 0.332,-0.352 0.22,-0.782 c-0.129,-0.492 -0.051,-0.686 0.211,-0.525 c0.266,0.165 0.337,-0.045 0.195,-0.586 c-0.141,-0.54 -0.071,-0.75 0.196,-0.586 c0.266,0.165 0.336,-0.045 0.195,-0.585 c-0.135,-0.517 -0.067,-0.749 0.176,-0.599 c0.251,0.156 0.294,-0.076 0.117,-0.634 c-0.199,-0.624 -0.146,-0.797 0.179,-0.596 c0.275,0.17 0.419,0.072 0.36,-0.244 c-0.205,-1.094 0.508,-3.85 0.929,-3.59 c0.268,0.166 0.331,0.024 0.173,-0.389 c-0.137,-0.357 -0.089,-0.65 0.106,-0.65 c0.196,0 0.289,-0.351 0.206,-0.781 c-0.083,-0.43 0.034,-0.781 0.259,-0.781 c0.226,0 0.311,-0.258 0.19,-0.574 c-0.121,-0.315 -0.062,-0.67 0.13,-0.789 c0.192,-0.119 0.281,-0.569 0.198,-1 c-0.095,-0.493 0.007,-0.685 0.277,-0.519 c0.291,0.18 0.342,-0.075 0.159,-0.804 c-0.194,-0.773 -0.14,-0.988 0.195,-0.781 c0.336,0.208 0.39,-0.007 0.196,-0.781 c-0.195,-0.774 -0.141,-0.989 0.195,-0.781 c0.336,0.207 0.389,-0.008 0.195,-0.782 c-0.195,-0.777 -0.141,-0.989 0.199,-0.779 c0.301,0.186 0.364,0.122 0.177,-0.179 c-0.159,-0.258 -0.078,-0.722 0.179,-1.032 c0.257,-0.31 0.354,-0.86 0.216,-1.222 c-0.139,-0.361 -0.063,-0.774 0.169,-0.918 c0.233,-0.143 0.452,-0.992 0.487,-1.886 c0.036,-0.895 0.192,-1.626 0.347,-1.626 c0.155,0 0.202,-0.44 0.105,-0.977 c-0.101,-0.555 0.007,-0.976 0.251,-0.976 c0.25,0 0.38,-0.56 0.312,-1.347 c-0.064,-0.74 -0.002,-1.46 0.138,-1.6 c0.14,-0.14 0.16,-0.501 0.045,-0.803 c-0.116,-0.301 -0.039,-0.547 0.171,-0.547 c0.21,0 0.402,-0.572 0.428,-1.27 c0.092,-2.477 0.254,-3.747 0.512,-4.004 c0.143,-0.144 0.18,-0.704 0.082,-1.245 c-0.098,-0.54 0.009,-1.208 0.237,-1.483 c0.228,-0.275 0.336,-1.136 0.24,-1.913 c-0.097,-0.777 -0.013,-1.413 0.186,-1.413 c0.198,0 0.361,-0.187 0.361,-0.414 c0,-0.228 -0.22,-0.29 -0.489,-0.138 c-0.375,0.212 -0.382,0.161 -0.032,-0.218 c0.264,-0.286 0.366,-1.053 0.242,-1.816 c-0.135,-0.831 -0.055,-1.321 0.216,-1.321 c0.282,0 0.38,-0.809 0.284,-2.343 c-0.081,-1.289 -0.017,-2.344 0.142,-2.344 c0.159,0 0.284,-6.152 0.279,-13.672 c-0.005,-7.52 -0.135,-13.672 -0.287,-13.672 c-0.153,0 -0.217,-1.004 -0.143,-2.232 c0.074,-1.228 -0.007,-2.414 -0.181,-2.637 c-0.173,-0.222 -0.273,-0.844 -0.222,-1.381 c0.051,-0.537 -0.105,-1.23 -0.346,-1.54 c-0.337,-0.431 -0.325,-0.494 0.048,-0.27 c0.269,0.162 0.489,0.108 0.489,-0.12 c0,-0.227 -0.178,-0.414 -0.395,-0.414 c-0.245,0 -0.297,-0.617 -0.136,-1.622 c0.17,-1.066 0.122,-1.538 -0.14,-1.376 c-0.252,0.156 -0.364,-0.33 -0.305,-1.315 c0.052,-0.859 -0.05,-1.651 -0.226,-1.76 c-0.177,-0.109 -0.255,-0.718 -0.175,-1.354 c0.081,-0.636 -0.01,-1.253 -0.202,-1.372 c-0.192,-0.118 -0.245,-0.736 -0.117,-1.372 c0.156,-0.781 0.075,-1.157 -0.25,-1.157 c-0.265,0 -0.389,-0.242 -0.275,-0.538 c0.114,-0.296 0.001,-0.761 -0.251,-1.034 c-0.356,-0.385 -0.34,-0.428 0.072,-0.194 c0.412,0.234 0.464,0.095 0.232,-0.626 c-0.164,-0.511 -0.3,-1.148 -0.303,-1.416 c-0.002,-0.269 -0.153,-0.489 -0.336,-0.489 c-0.184,0 -0.253,-0.443 -0.155,-0.984 c0.116,-0.642 0.031,-0.894 -0.245,-0.723 c-0.284,0.175 -0.339,-0.071 -0.169,-0.749 c0.139,-0.556 0.094,-1.11 -0.102,-1.231 c-0.195,-0.121 -0.268,-0.551 -0.162,-0.956 c0.105,-0.406 0.018,-0.845 -0.196,-0.977 c-0.213,-0.132 -0.296,-0.591 -0.184,-1.021 c0.113,-0.429 0.025,-0.78 -0.195,-0.78 c-0.22,0 -0.3,-0.38 -0.179,-0.843 c0.163,-0.625 0.089,-0.761 -0.289,-0.528 c-0.392,0.243 -0.448,0.069 -0.241,-0.752 c0.194,-0.774 0.14,-0.989 -0.196,-0.782 c-0.335,0.208 -0.389,-0.007 -0.195,-0.781 c0.181,-0.721 0.131,-0.983 -0.154,-0.807 c-0.285,0.177 -0.335,-0.085 -0.154,-0.806 c0.19,-0.756 0.137,-0.987 -0.18,-0.791 c-0.414,0.256 -0.66,-0.989 -0.476,-2.407 c0.034,-0.268 -0.077,-0.488 -0.247,-0.489 c-0.171,0 -0.33,-0.546 -0.354,-1.213 c-0.024,-0.667 -0.255,-1.343 -0.513,-1.502 c-0.258,-0.159 -0.484,-0.844 -0.504,-1.521 c-0.019,-0.678 -0.178,-1.232 -0.354,-1.232 c-0.175,0 -0.206,-0.292 -0.069,-0.65 c0.181,-0.472 0.108,-0.562 -0.268,-0.33 c-0.337,0.208 -0.424,0.169 -0.25,-0.113 c0.343,-0.554 -0.128,-2.48 -0.542,-2.224 c-0.172,0.107 -0.214,-0.186 -0.093,-0.649 c0.142,-0.541 0.071,-0.751 -0.195,-0.586 c-0.266,0.164 -0.336,-0.046 -0.195,-0.586 c0.141,-0.54 0.071,-0.751 -0.196,-0.586 c-0.261,0.162 -0.34,-0.033 -0.211,-0.525 c0.126,-0.482 0.012,-0.782 -0.297,-0.782 c-0.275,0 -0.385,-0.116 -0.244,-0.257 c0.141,-0.141 0.06,-0.495 -0.182,-0.786 c-0.241,-0.291 -0.501,-1.064 -0.578,-1.719 c-0.076,-0.654 -0.414,-1.466 -0.751,-1.803 c-0.338,-0.338 -0.518,-0.864 -0.401,-1.17 c0.136,-0.352 0.048,-0.453 -0.239,-0.276 c-0.302,0.187 -0.369,0.064 -0.203,-0.37 c0.138,-0.358 0.061,-0.65 -0.171,-0.65 c-0.231,0 -0.315,-0.273 -0.187,-0.606 c0.128,-0.334 0.079,-0.512 -0.109,-0.395 c-0.188,0.116 -0.433,-0.139 -0.545,-0.567 c-0.112,-0.427 -0.044,-0.678 0.151,-0.558 c0.57,0.353 0.41,-0.033 -0.403,-0.971 c-0.416,-0.48 -0.67,-1.099 -0.563,-1.377 c0.106,-0.277 -0.089,-0.612 -0.434,-0.744 c-0.345,-0.132 -0.597,-0.462 -0.562,-0.734 c0.145,-1.105 -0.051,-1.893 -0.414,-1.668 c-0.214,0.132 -0.291,-0.009 -0.173,-0.317 c0.118,-0.307 -0.077,-0.667 -0.436,-0.805 c-0.375,-0.144 -0.554,-0.495 -0.425,-0.832 c0.123,-0.32 0.074,-0.582 -0.109,-0.582 c-0.298,0 -0.788,-1.096 -0.961,-2.149 c-0.185,-1.119 -0.734,-2.133 -1.049,-1.938 c-0.197,0.122 -0.243,-0.08 -0.101,-0.449 c0.188,-0.491 0.119,-0.585 -0.26,-0.351 c-0.32,0.198 -0.423,0.168 -0.271,-0.078 c0.299,-0.484 -1.373,-4.053 -2.233,-4.767 c-0.34,-0.282 -0.534,-0.651 -0.43,-0.819 c0.104,-0.168 -0.092,-0.413 -0.435,-0.545 c-0.356,-0.136 -0.528,-0.49 -0.401,-0.822 c0.128,-0.334 -0.276,-1.152 -0.947,-1.916 c-0.644,-0.734 -1.145,-1.481 -1.113,-1.66 c0.147,-0.839 -0.089,-1.303 -0.663,-1.303 c-0.393,0 -0.545,-0.216 -0.407,-0.576 c0.121,-0.316 -0.047,-0.725 -0.373,-0.908 c-0.512,-0.286 -0.783,-0.925 -0.906,-2.13 c-0.017,-0.161 -0.304,-0.292 -0.639,-0.292 c-0.36,0 -0.496,-0.184 -0.331,-0.45 c0.153,-0.248 0.014,-0.643 -0.309,-0.879 c-0.323,-0.236 -0.635,-0.605 -0.695,-0.82 c-0.298,-1.069 -0.518,-1.34 -0.898,-1.105 c-0.26,0.16 -0.323,0.015 -0.168,-0.389 c0.152,-0.398 0.065,-0.609 -0.227,-0.552 c-0.261,0.051 -0.45,-0.213 -0.421,-0.586 c0.03,-0.374 -0.102,-0.583 -0.293,-0.466 c-0.19,0.118 -0.346,-0.158 -0.346,-0.613 c0,-0.455 -0.176,-0.719 -0.391,-0.586 c-0.215,0.133 -0.39,-0.12 -0.39,-0.563 c0,-0.442 -0.22,-0.76 -0.489,-0.706 c-0.268,0.053 -0.489,-0.222 -0.491,-0.612 c-0.002,-0.39 -0.612,-1.349 -1.356,-2.131 c-0.744,-0.782 -1.392,-1.689 -1.44,-2.015 c-0.048,-0.325 -0.358,-0.79 -0.689,-1.032 c-0.331,-0.242 -0.519,-0.523 -0.417,-0.624 c0.101,-0.101 -0.449,-0.875 -1.223,-1.719 c-0.773,-0.844 -1.373,-1.616 -1.333,-1.715 c0.041,-0.099 -0.247,-0.307 -0.639,-0.461 c-0.392,-0.155 -0.547,-0.293 -0.345,-0.308 c0.202,-0.016 0.027,-0.305 -0.39,-0.643 c-0.417,-0.338 -0.495,-0.499 -0.173,-0.358 c0.323,0.142 -0.029,-0.299 -0.781,-0.98 c-0.752,-0.681 -1.12,-1.108 -0.819,-0.949 c0.362,0.19 0.454,0.135 0.27,-0.163 c-0.153,-0.248 -0.542,-0.45 -0.864,-0.45 c-0.323,-0.001 -0.495,-0.148 -0.384,-0.327 c0.3,-0.486 -0.891,-2.017 -1.569,-2.017 c-0.322,0 -0.489,-0.158 -0.37,-0.35 c0.119,-0.192 -0.048,-0.451 -0.371,-0.575 c-0.323,-0.124 -0.542,-0.436 -0.486,-0.693 c0.055,-0.257 -0.294,-0.673 -0.776,-0.924 c-0.482,-0.252 -0.774,-0.56 -0.65,-0.684 c0.125,-0.125 -0.155,-0.431 -0.622,-0.68 c-0.466,-0.25 -0.743,-0.559 -0.615,-0.687 c0.315,-0.315 -1.35,-2.048 -1.969,-2.048 c-0.272,0 -0.62,-0.203 -0.773,-0.451 c-0.185,-0.3 -0.095,-0.35 0.27,-0.15 c0.301,0.165 -0.551,-0.702 -1.896,-1.926 c-1.344,-1.225 -2.36,-2.362 -2.258,-2.528 c0.229,-0.37 -1.521,-2.067 -1.822,-1.766 c-0.12,0.119 -1.226,-0.89 -2.458,-2.243 c-1.232,-1.353 -2.105,-2.212 -1.94,-1.911 c0.2,0.365 0.15,0.455 -0.15,0.27 c-0.248,-0.153 -0.451,-0.501 -0.451,-0.773 c0,-0.272 -0.44,-0.908 -0.977,-1.413 c-0.537,-0.504 -0.976,-0.759 -0.976,-0.567 c0,0.193 -0.276,-0.043 -0.613,-0.524 c-0.337,-0.481 -0.776,-0.773 -0.976,-0.65 c-0.201,0.124 -0.364,-0.027 -0.364,-0.336 c0,-0.309 -0.308,-0.802 -0.684,-1.097 c-0.628,-0.493 -0.64,-0.472 -0.152,0.245 c0.292,0.43 -0.026,0.166 -0.708,-0.586 c-0.682,-0.752 -1.418,-1.319 -1.635,-1.26 c-0.217,0.059 -0.289,-0.064 -0.16,-0.273 c0.13,-0.21 -0.165,-0.594 -0.654,-0.855 c-0.49,-0.261 -1.123,-0.753 -1.407,-1.094 c-0.415,-0.496 -0.466,-0.503 -0.261,-0.034 c0.142,0.323 -0.299,-0.029 -0.98,-0.781 c-0.681,-0.752 -1.101,-1.104 -0.933,-0.781 c0.167,0.322 -0.444,-0.165 -1.358,-1.083 c-0.963,-0.966 -1.858,-1.556 -2.127,-1.402 c-0.256,0.146 -0.336,0.124 -0.179,-0.049 c0.358,-0.397 -2.398,-2.519 -3.291,-2.534 c-0.364,-0.005 -0.903,-0.355 -1.199,-0.777 c-0.295,-0.422 -1.052,-1.164 -1.682,-1.65 c-0.93,-0.717 -1.035,-0.742 -0.559,-0.13 c0.57,0.732 0.558,0.732 -0.448,-0.011 c-0.569,-0.419 -0.954,-0.895 -0.856,-1.056 c0.098,-0.161 -0.096,-0.293 -0.431,-0.293 c-0.335,0 -0.609,-0.186 -0.609,-0.413 c0,-0.228 -0.157,-0.317 -0.35,-0.198 c-0.192,0.119 -0.45,-0.046 -0.573,-0.367 c-0.123,-0.321 -0.592,-0.584 -1.041,-0.584 c-0.518,0 -0.714,-0.165 -0.538,-0.451 c0.174,-0.281 0.107,-0.345 -0.176,-0.17 c-0.262,0.162 -0.962,-0.224 -1.646,-0.908 c-0.654,-0.655 -1.311,-1.173 -1.46,-1.152 c-0.772,0.111 -1.266,-0.098 -1.052,-0.444 c0.133,-0.215 0.055,-0.413 -0.172,-0.44 c-0.228,-0.026 -0.59,-0.092 -0.804,-0.146 c-0.215,-0.054 -0.577,-0.12 -0.805,-0.147 c-0.227,-0.026 -0.305,-0.224 -0.172,-0.439 c0.133,-0.215 0.055,-0.413 -0.172,-0.439 c-0.228,-0.027 -0.59,-0.093 -0.804,-0.147 c-0.215,-0.054 -0.577,-0.12 -0.805,-0.146 c-0.227,-0.027 -0.321,-0.199 -0.207,-0.383 c0.113,-0.183 -0.239,-0.536 -0.783,-0.784 c-0.67,-0.305 -0.905,-0.314 -0.729,-0.028 c0.148,0.238 -0.086,0.205 -0.535,-0.075 c-0.439,-0.274 -0.71,-0.639 -0.604,-0.811 c0.177,-0.285 -0.405,-0.471 -1.123,-0.358 c-0.161,0.025 -0.293,-0.111 -0.293,-0.303 c0,-0.192 -0.272,-0.453 -0.606,-0.581 c-0.407,-0.157 -0.516,-0.074 -0.33,0.251 c0.152,0.266 -0.264,-0.019 -0.925,-0.633 c-0.729,-0.678 -1.39,-1 -1.683,-0.819 c-0.291,0.18 -0.383,0.138 -0.232,-0.107 c0.24,-0.388 -1.964,-1.563 -2.571,-1.371 c-0.161,0.052 -0.293,-0.093 -0.293,-0.32 c0,-0.228 -0.176,-0.305 -0.391,-0.173 c-0.215,0.133 -0.39,0.026 -0.39,-0.237 c0,-0.263 -0.109,-0.37 -0.242,-0.237 c-0.133,0.133 -0.508,-0.023 -0.832,-0.348 c-0.324,-0.324 -0.84,-0.494 -1.146,-0.376 c-0.352,0.135 -0.453,0.047 -0.276,-0.24 c0.187,-0.302 0.064,-0.369 -0.37,-0.203 c-0.358,0.137 -0.65,0.069 -0.65,-0.152 c0,-0.22 -0.176,-0.292 -0.391,-0.16 c-0.215,0.133 -0.39,0.056 -0.39,-0.172 c0,-0.227 -0.445,-0.414 -0.989,-0.414 c-0.544,0 -1.09,-0.262 -1.213,-0.583 c-0.123,-0.321 -0.381,-0.487 -0.574,-0.368 c-0.192,0.119 -0.349,0.022 -0.349,-0.215 c0,-0.237 -0.22,-0.384 -0.489,-0.328 c-0.268,0.057 -0.964,-0.214 -1.545,-0.602 c-0.581,-0.388 -1.268,-0.575 -1.525,-0.416 c-0.311,0.192 -0.366,0.123 -0.164,-0.203 c0.223,-0.36 0.089,-0.425 -0.496,-0.239 c-0.49,0.155 -0.927,0.05 -1.123,-0.27 c-0.466,-0.76 -4.334,-2.254 -5.086,-1.966 c-0.398,0.153 -0.541,0.088 -0.381,-0.171 c0.142,-0.229 -0.015,-0.52 -0.347,-0.648 c-0.407,-0.156 -0.512,-0.074 -0.321,0.252 c0.156,0.266 -0.074,0.172 -0.509,-0.209 c-0.494,-0.432 -1.058,-0.591 -1.499,-0.422 c-0.525,0.201 -0.624,0.138 -0.386,-0.247 c0.241,-0.389 0.11,-0.464 -0.522,-0.299 c-0.545,0.143 -0.751,0.072 -0.583,-0.2 c0.165,-0.266 0.021,-0.329 -0.39,-0.171 c-0.357,0.137 -0.65,0.085 -0.65,-0.116 c0,-0.202 -0.264,-0.265 -0.586,-0.142 c-0.322,0.124 -0.586,0.036 -0.586,-0.195 c0,-0.231 -0.264,-0.319 -0.586,-0.195 c-0.322,0.123 -0.586,0.035 -0.586,-0.196 c0,-0.231 -0.263,-0.319 -0.586,-0.195 c-0.322,0.124 -0.586,0.036 -0.586,-0.195 c0,-0.231 -0.263,-0.319 -0.586,-0.196 c-0.322,0.124 -0.585,0.019 -0.585,-0.234 c0,-0.29 -0.306,-0.361 -0.831,-0.195 c-0.558,0.178 -0.742,0.122 -0.563,-0.169 c0.247,-0.398 -0.325,-0.586 -1.634,-0.537 c-0.268,0.01 -0.488,-0.114 -0.488,-0.275 c0,-0.161 -0.466,-0.204 -1.035,-0.095 c-0.785,0.15 -0.958,0.074 -0.717,-0.316 c0.23,-0.372 0.138,-0.445 -0.332,-0.264 c-0.358,0.137 -0.65,0.075 -0.65,-0.137 c0,-0.222 -0.439,-0.276 -1.035,-0.126 c-0.774,0.194 -0.959,0.136 -0.733,-0.23 c0.222,-0.358 0.081,-0.419 -0.527,-0.226 c-0.525,0.167 -0.83,0.095 -0.83,-0.195 c0,-0.252 -0.259,-0.36 -0.574,-0.239 c-0.315,0.121 -0.685,0.04 -0.821,-0.18 c-0.136,-0.22 -0.493,-0.306 -0.793,-0.19 c-0.301,0.115 -0.547,0.019 -0.547,-0.214 c0,-0.234 -0.351,-0.332 -0.781,-0.22 c-0.43,0.112 -0.781,0.026 -0.781,-0.192 c0,-0.228 -0.416,-0.292 -0.977,-0.151 c-0.609,0.152 -0.976,0.079 -0.976,-0.196 c0,-0.274 -0.368,-0.348 -0.977,-0.195 c-0.593,0.149 -0.977,0.078 -0.977,-0.179 c0,-0.247 -0.327,-0.321 -0.781,-0.177 c-0.43,0.137 -0.781,0.071 -0.781,-0.145 c0,-0.215 -0.308,-0.408 -0.684,-0.428 c-2.906,-0.15 -3.513,-0.249 -3.331,-0.543 c0.113,-0.184 -0.189,-0.209 -0.672,-0.056 c-0.484,0.154 -0.989,0.112 -1.124,-0.092 c-0.39,-0.593 -2.885,-0.978 -2.532,-0.39 c0.201,0.334 0.093,0.323 -0.352,-0.038 c-0.364,-0.295 -0.99,-0.41 -1.443,-0.267 c-0.471,0.15 -0.8,0.08 -0.8,-0.17 c0,-0.253 -0.378,-0.33 -0.934,-0.19 c-0.513,0.129 -1.043,0.056 -1.178,-0.161 c-0.134,-0.218 -0.699,-0.313 -1.254,-0.212 c-0.556,0.1 -1.254,-0.02 -1.552,-0.267 c-0.329,-0.273 -1.079,-0.349 -1.913,-0.192 c-0.858,0.161 -1.372,0.104 -1.372,-0.151 c0,-0.225 -0.186,-0.409 -0.413,-0.409 c-0.228,0 -0.282,0.22 -0.121,0.489 c0.227,0.376 0.165,0.385 -0.27,0.039 c-0.309,-0.247 -1.046,-0.394 -1.635,-0.328 c-0.59,0.067 -1.167,-0.03 -1.282,-0.216 c-0.115,-0.186 -1.17,-0.274 -2.344,-0.197 c-1.175,0.078 -2.218,0.009 -2.318,-0.152 c-0.261,-0.423 -28.726,-0.4 -28.726,0.023 m-71.582,18.619 c-0.376,0.077 -0.684,0.313 -0.684,0.525 c0,0.212 -0.176,0.276 -0.39,0.144 c-0.215,-0.133 -0.391,-0.045 -0.391,0.195 c0,0.24 -0.176,0.328 -0.391,0.195 c-0.214,-0.133 -0.39,-0.045 -0.39,0.196 c0,0.24 -0.176,0.328 -0.391,0.195 c-0.215,-0.133 -0.39,-0.045 -0.39,0.195 c0,0.24 -0.176,0.328 -0.391,0.195 c-0.215,-0.132 -0.391,-0.044 -0.391,0.196 c0,0.24 -0.176,0.328 -0.39,0.195 c-0.215,-0.133 -0.391,-0.045 -0.391,0.195 c0,0.241 -0.176,0.328 -0.391,0.196 c-0.214,-0.133 -0.39,-0.026 -0.39,0.237 c0,0.263 -0.11,0.369 -0.245,0.234 c-0.347,-0.347 -2.49,0.825 -2.49,1.362 c0,0.245 -0.118,0.327 -0.264,0.181 c-0.145,-0.145 -0.7,0.133 -1.234,0.619 c-0.534,0.485 -0.844,0.661 -0.688,0.391 c0.224,-0.388 0.076,-0.397 -0.706,-0.04 c-0.544,0.247 -0.88,0.627 -0.746,0.844 c0.134,0.217 0.055,0.277 -0.176,0.135 c-0.231,-0.143 -0.658,-0.038 -0.949,0.232 c-0.291,0.271 -0.788,0.546 -1.105,0.611 c-0.317,0.066 -0.805,0.417 -1.083,0.782 c-0.279,0.364 -0.718,0.679 -0.977,0.699 c-0.861,0.07 -1.835,0.626 -1.642,0.939 c0.105,0.17 -0.081,0.413 -0.413,0.541 c-0.397,0.152 -0.52,0.066 -0.36,-0.252 c0.135,-0.266 -0.032,-0.143 -0.37,0.274 c-0.338,0.417 -0.62,0.593 -0.627,0.391 c-0.007,-0.202 -0.271,-0.027 -0.586,0.39 c-0.316,0.417 -0.574,0.637 -0.574,0.489 c0,-0.149 -0.358,0.088 -0.795,0.525 c-0.438,0.438 -0.966,0.69 -1.175,0.561 c-0.208,-0.128 -0.48,0.03 -0.604,0.352 c-0.123,0.322 -0.474,0.491 -0.778,0.374 c-0.341,-0.131 -0.554,0.037 -0.554,0.438 c0,0.358 -0.177,0.541 -0.393,0.408 c-0.217,-0.134 -0.495,0.02 -0.619,0.343 c-0.123,0.322 -0.474,0.49 -0.778,0.373 c-0.35,-0.134 -0.554,0.043 -0.554,0.481 c0,0.381 -0.109,0.583 -0.243,0.449 c-0.135,-0.134 -0.557,0.143 -0.94,0.615 c-0.383,0.473 -0.933,0.867 -1.221,0.876 c-0.881,0.027 -2.916,1.445 -3.309,2.304 c-0.203,0.446 -0.583,0.766 -0.844,0.713 c-0.261,-0.054 -0.474,0.088 -0.474,0.316 c0,0.227 -0.18,0.302 -0.4,0.166 c-0.22,-0.136 -0.352,-0.102 -0.293,0.075 c0.059,0.177 -0.017,0.322 -0.169,0.322 c-0.152,0 -0.56,0.351 -0.908,0.781 c-0.347,0.43 -0.493,0.518 -0.324,0.195 c0.169,-0.322 -0.248,-0.146 -0.926,0.391 c-0.679,0.537 -1.243,1.177 -1.255,1.421 c-0.012,0.245 -0.319,0.421 -0.682,0.391 c-0.364,-0.03 -0.863,0.34 -1.11,0.822 c-0.246,0.482 -0.563,0.762 -0.704,0.621 c-0.35,-0.35 -1.823,1.032 -1.823,1.711 c0,0.302 -0.157,0.451 -0.349,0.333 c-0.193,-0.119 -0.451,0.048 -0.575,0.371 c-0.124,0.323 -0.436,0.542 -0.693,0.486 c-0.257,-0.056 -0.699,0.338 -0.982,0.875 c-0.283,0.537 -0.523,0.801 -0.533,0.586 c-0.01,-0.215 -0.355,0.013 -0.766,0.505 c-0.411,0.493 -0.881,0.845 -1.045,0.782 c-0.165,-0.063 -0.701,0.482 -1.193,1.212 c-0.492,0.73 -0.895,1.184 -0.895,1.008 c0,-0.175 -0.721,0.458 -1.603,1.407 c-0.882,0.95 -1.467,1.463 -1.3,1.141 c0.203,-0.392 0.025,-0.342 -0.536,0.15 c-0.462,0.404 -0.763,0.858 -0.671,1.008 c0.093,0.15 -0.746,1.137 -1.864,2.194 l-2.034,1.921 l1.939,-2.051 c1.066,-1.128 1.769,-2.03 1.562,-2.005 c-0.207,0.026 -1.43,1.197 -2.719,2.603 c-1.29,1.407 -2.081,2.42 -1.758,2.253 c0.322,-0.168 -0.117,0.364 -0.977,1.182 c-0.859,0.817 -1.514,1.642 -1.455,1.832 c0.059,0.19 -0.073,0.234 -0.293,0.098 c-0.22,-0.136 -0.4,-0.061 -0.4,0.167 c0,0.227 -0.264,0.413 -0.586,0.413 c-0.322,0 -0.586,0.187 -0.586,0.414 c0,0.228 0.203,0.288 0.451,0.135 c0.282,-0.174 0.345,-0.107 0.168,0.179 c-0.155,0.251 -0.433,0.364 -0.616,0.251 c-0.184,-0.114 -0.711,0.323 -1.172,0.97 c-0.46,0.647 -0.694,1.179 -0.518,1.182 c0.176,0.003 -0.12,0.237 -0.657,0.52 c-0.537,0.283 -0.931,0.725 -0.875,0.982 c0.056,0.257 -0.163,0.569 -0.486,0.693 c-0.323,0.124 -0.49,0.382 -0.371,0.575 c0.118,0.192 -0.037,0.349 -0.345,0.349 c-0.309,0 -0.803,0.308 -1.098,0.684 c-0.467,0.596 -0.458,0.633 0.069,0.293 c0.364,-0.236 0.332,-0.139 -0.082,0.244 c-0.376,0.35 -0.575,0.745 -0.441,0.879 c0.134,0.134 -0.043,0.244 -0.394,0.244 c-0.686,0 -1.578,1.3 -1.171,1.707 c0.135,0.135 -0.004,0.246 -0.311,0.246 c-0.542,0 -1.679,1.405 -1.707,2.109 c-0.008,0.194 -0.366,0.489 -0.796,0.656 c-0.518,0.203 -0.584,0.319 -0.195,0.346 c0.449,0.031 0.398,0.197 -0.216,0.711 c-0.441,0.369 -0.812,0.846 -0.825,1.061 c-0.013,0.215 -0.377,0.554 -0.808,0.754 c-0.745,0.346 -2.054,2.316 -2.094,3.152 c-0.031,0.648 -1.214,1.758 -1.879,1.764 c-0.545,0.005 -0.55,0.054 -0.037,0.385 c0.493,0.319 0.471,0.379 -0.14,0.384 c-0.494,0.004 -0.651,0.2 -0.493,0.613 c0.134,0.347 0.068,0.504 -0.153,0.367 c-0.212,-0.131 -0.386,-0.052 -0.386,0.175 c0,0.731 -0.141,0.988 -0.867,1.586 c-0.392,0.322 -0.792,1.012 -0.89,1.534 c-0.098,0.521 -0.368,1.136 -0.601,1.367 c-0.303,0.3 -0.352,0.197 -0.175,-0.362 c0.224,-0.706 0.205,-0.715 -0.193,-0.095 c-0.243,0.378 -0.345,0.843 -0.227,1.034 c0.117,0.19 -0.074,0.457 -0.426,0.592 c-0.351,0.135 -0.529,0.355 -0.394,0.49 c0.135,0.135 -0.06,0.495 -0.433,0.801 c-0.372,0.306 -0.459,0.446 -0.193,0.311 c0.318,-0.16 0.404,-0.037 0.252,0.36 c-0.128,0.332 -0.371,0.518 -0.541,0.413 c-0.346,-0.214 -0.941,0.933 -0.837,1.611 c0.037,0.242 -0.388,0.739 -0.945,1.104 c-0.558,0.365 -0.923,0.9 -0.812,1.188 c0.111,0.289 -0.07,0.629 -0.401,0.756 c-0.349,0.133 -0.504,0.484 -0.37,0.833 c0.127,0.332 0.083,0.512 -0.098,0.4 c-0.181,-0.112 -0.532,0.242 -0.779,0.786 c-0.357,0.782 -0.348,0.93 0.04,0.706 c0.27,-0.156 0.065,0.184 -0.456,0.756 c-0.521,0.572 -0.837,1.04 -0.702,1.04 c0.135,0 -0.193,0.472 -0.727,1.049 c-0.535,0.576 -0.889,1.265 -0.787,1.53 c0.101,0.264 -0.08,0.583 -0.404,0.707 c-0.387,0.149 -0.502,0.496 -0.336,1.019 c0.173,0.544 0.089,0.759 -0.266,0.685 c-0.287,-0.059 -0.494,0.196 -0.465,0.572 c0.03,0.374 -0.084,0.594 -0.252,0.49 c-0.387,-0.239 -0.854,0.93 -0.561,1.405 c0.121,0.195 0.034,0.355 -0.194,0.355 c-0.227,0 -0.413,0.264 -0.413,0.586 c0,0.322 -0.22,0.589 -0.489,0.592 c-0.325,0.004 -0.293,0.132 0.098,0.385 c0.486,0.314 0.453,0.38 -0.195,0.39 c-0.648,0.01 -0.682,0.077 -0.196,0.391 c0.391,0.252 0.424,0.381 0.098,0.385 c-0.269,0.003 -0.488,0.455 -0.488,1.005 c0,0.567 -0.169,0.895 -0.391,0.758 c-0.37,-0.229 -0.456,-0.061 -0.547,1.075 c-0.021,0.268 -0.346,0.796 -0.722,1.172 c-0.376,0.376 -0.681,0.903 -0.678,1.171 c0.004,0.326 0.132,0.293 0.385,-0.097 c0.237,-0.368 0.381,-0.41 0.384,-0.112 c0.004,0.261 -0.35,0.666 -0.786,0.899 c-0.436,0.233 -0.689,0.591 -0.563,0.795 c0.126,0.204 0.059,0.371 -0.15,0.371 c-0.208,0 -0.331,0.439 -0.272,0.976 c0.059,0.538 -0.055,0.977 -0.253,0.977 c-0.198,0 -0.251,0.176 -0.118,0.391 c0.133,0.214 0.036,0.39 -0.214,0.39 c-0.251,0 -0.356,0.259 -0.235,0.575 c0.121,0.316 -0.045,0.839 -0.368,1.163 c-0.324,0.324 -0.559,0.812 -0.523,1.086 c0.131,0.996 -0.036,1.514 -0.414,1.281 c-0.221,-0.137 -0.286,0.02 -0.153,0.367 c0.132,0.344 0.026,0.606 -0.245,0.606 c-0.286,0 -0.396,0.315 -0.274,0.782 c0.13,0.498 0.051,0.687 -0.216,0.522 c-0.266,-0.164 -0.329,-0.021 -0.171,0.39 c0.137,0.358 0.069,0.65 -0.152,0.65 c-0.221,0 -0.286,0.187 -0.145,0.415 c0.141,0.229 -0.068,0.786 -0.465,1.239 c-0.479,0.546 -0.525,0.713 -0.136,0.495 c0.354,-0.2 0.276,0.033 -0.195,0.586 c-0.472,0.552 -0.55,0.785 -0.196,0.585 c0.381,-0.214 0.331,-0.038 -0.145,0.505 c-0.402,0.458 -0.627,1.104 -0.5,1.434 c0.126,0.33 0.065,0.601 -0.136,0.601 c-0.201,0 -0.265,0.263 -0.141,0.585 c0.124,0.325 0.011,0.586 -0.253,0.586 c-0.286,0 -0.396,0.315 -0.274,0.782 c0.13,0.498 0.051,0.687 -0.216,0.522 c-0.266,-0.164 -0.329,-0.021 -0.171,0.39 c0.137,0.358 0.089,0.65 -0.107,0.65 c-0.195,0 -0.288,0.352 -0.205,0.781 c0.086,0.449 -0.06,0.782 -0.343,0.782 c-0.317,0 -0.469,0.49 -0.426,1.367 c0.038,0.752 -0.1,1.367 -0.307,1.367 c-0.206,0 -0.276,0.258 -0.155,0.573 c0.121,0.316 0.04,0.685 -0.18,0.821 c-0.22,0.136 -0.306,0.493 -0.191,0.794 c0.116,0.3 0.045,0.546 -0.156,0.546 c-0.201,0 -0.272,0.246 -0.156,0.547 c0.115,0.3 0.019,0.664 -0.214,0.808 c-0.233,0.144 -0.318,0.433 -0.189,0.643 c0.13,0.209 0.025,0.634 -0.232,0.944 c-0.258,0.31 -0.368,0.824 -0.246,1.142 c0.122,0.319 0.075,0.67 -0.105,0.781 c-0.179,0.111 -0.419,0.556 -0.532,0.989 c-0.114,0.434 -0.047,0.69 0.148,0.569 c0.509,-0.314 0.433,0.254 -0.195,1.457 c-0.761,1.459 -1.41,4.708 -1.144,5.726 c0.123,0.468 0.005,1.114 -0.262,1.436 c-0.266,0.321 -0.353,0.583 -0.193,0.583 c0.16,0 0.103,0.226 -0.126,0.502 c-0.229,0.276 -0.36,0.847 -0.292,1.269 c0.069,0.423 -0.111,1.346 -0.399,2.052 c-0.287,0.707 -0.353,1.18 -0.146,1.052 c0.207,-0.128 0.377,0.03 0.377,0.353 c0,0.322 -0.145,0.675 -0.322,0.785 c-0.177,0.109 -0.284,0.904 -0.237,1.767 c0.055,1.005 -0.075,1.538 -0.361,1.484 c-0.471,-0.088 -0.475,0.064 -0.045,1.779 c0.171,0.681 0.112,1.067 -0.165,1.067 c-0.238,0 -0.433,0.186 -0.433,0.413 c0,0.228 0.22,0.282 0.489,0.121 c0.371,-0.223 0.367,-0.145 -0.015,0.328 c-0.277,0.341 -0.421,1.075 -0.32,1.631 c0.1,0.555 0.016,1.113 -0.188,1.239 c-0.204,0.126 -0.278,1.184 -0.165,2.35 c0.113,1.166 0.049,2.121 -0.143,2.121 c-0.459,0 -0.428,28.476 0.032,28.76 c0.191,0.119 0.12,0.497 -0.159,0.842 c-0.38,0.469 -0.385,0.553 -0.019,0.333 c0.31,-0.187 0.488,-0.063 0.488,0.338 c0,0.36 -0.185,0.518 -0.429,0.367 c-0.302,-0.187 -0.318,-0.048 -0.053,0.465 c0.207,0.402 0.296,0.956 0.197,1.232 c-0.098,0.276 0.057,0.793 0.346,1.149 c0.289,0.357 0.335,0.534 0.102,0.395 c-0.233,-0.139 -0.423,-0.005 -0.423,0.299 c0,0.303 0.176,0.442 0.392,0.309 c0.239,-0.148 0.287,0.03 0.123,0.457 c-0.147,0.385 -0.045,0.975 0.227,1.311 c0.387,0.478 0.388,0.548 0.007,0.318 c-0.269,-0.161 -0.489,-0.107 -0.489,0.121 c0,0.227 0.184,0.413 0.409,0.413 c0.255,0 0.312,0.514 0.151,1.372 c-0.155,0.822 -0.082,1.583 0.183,1.902 c0.242,0.291 0.376,0.949 0.297,1.46 c-0.078,0.512 0.052,1.243 0.288,1.626 c0.327,0.529 0.302,0.775 -0.105,1.028 c-0.435,0.271 -0.408,0.405 0.147,0.715 c0.531,0.297 0.593,0.544 0.279,1.104 c-0.307,0.549 -0.249,0.849 0.243,1.255 c0.356,0.294 0.459,0.442 0.228,0.329 c-0.259,-0.126 -0.408,0.309 -0.39,1.142 c0.018,0.859 0.22,1.347 0.559,1.347 c0.375,0.001 0.456,0.297 0.277,1.011 c-0.139,0.555 -0.114,0.923 0.055,0.818 c0.271,-0.167 0.367,0.459 0.517,3.348 c0.02,0.376 0.213,0.684 0.428,0.684 c0.216,0 0.282,0.351 0.145,0.781 c-0.144,0.454 -0.07,0.781 0.177,0.781 c0.257,0 0.328,0.384 0.179,0.977 c-0.151,0.602 -0.079,0.977 0.188,0.977 c0.238,0 0.433,0.186 0.433,0.413 c0,0.228 -0.16,0.315 -0.354,0.195 c-0.195,-0.12 -0.263,0.133 -0.15,0.563 c0.112,0.43 0.395,0.782 0.627,0.782 c0.295,0 0.291,0.132 -0.015,0.438 c-0.547,0.547 -0.188,1.607 0.421,1.242 c0.269,-0.161 0.249,-0.023 -0.051,0.347 c-0.41,0.506 -0.394,0.656 0.091,0.842 c0.338,0.13 0.491,0.482 0.359,0.827 c-0.127,0.33 -0.024,0.601 0.228,0.601 c0.29,-10e-4 0.362,0.305 0.195,0.83 c-0.177,0.558 -0.122,0.742 0.169,0.563 c0.583,-0.361 0.553,0.674 -0.036,1.263 c-0.364,0.364 -0.324,0.469 0.183,0.469 c0.448,0 0.574,0.203 0.403,0.65 c-0.181,0.47 -0.108,0.562 0.264,0.332 c0.39,-0.241 0.466,-0.068 0.316,0.717 c-0.109,0.569 -0.066,1.035 0.095,1.035 c0.161,0 0.285,0.22 0.275,0.488 c-0.047,1.259 0.139,1.881 0.495,1.66 c0.547,-0.338 0.489,0.332 -0.078,0.899 c-0.364,0.364 -0.312,0.468 0.237,0.469 c0.467,0 0.63,0.198 0.481,0.585 c-0.123,0.323 -0.035,0.586 0.196,0.586 c0.231,0 0.323,0.253 0.205,0.561 c-0.119,0.308 -0.006,0.631 0.251,0.718 c0.345,0.116 0.325,0.327 -0.077,0.815 c-0.48,0.581 -0.461,0.627 0.165,0.387 c0.545,-0.21 0.653,-0.127 0.468,0.356 c-0.133,0.346 -0.031,0.714 0.225,0.818 c0.338,0.138 0.328,0.198 -0.036,0.221 c-0.368,0.022 -0.397,0.225 -0.111,0.761 c0.215,0.401 0.265,0.868 0.111,1.038 c-0.153,0.17 0.031,0.198 0.41,0.062 c0.565,-0.203 0.647,-0.084 0.459,0.666 c-0.161,0.643 -0.034,0.988 0.43,1.166 c0.565,0.217 0.583,0.346 0.126,0.908 c-0.464,0.571 -0.445,0.622 0.152,0.398 c0.376,-0.141 0.683,-0.086 0.683,0.122 c0,0.208 -0.173,0.378 -0.384,0.378 c-0.211,0 -0.039,0.614 0.383,1.365 c0.421,0.751 0.843,1.79 0.938,2.31 c0.232,1.283 0.957,2.575 1.444,2.575 c0.22,0 0.286,0.184 0.148,0.408 c-0.139,0.224 0.065,0.884 0.453,1.465 c0.388,0.581 0.659,1.277 0.602,1.545 c-0.056,0.269 0.091,0.489 0.328,0.489 c0.237,0 0.334,0.157 0.215,0.349 c-0.119,0.193 0.047,0.451 0.368,0.574 c0.321,0.123 0.583,0.669 0.583,1.213 c0,0.544 0.187,0.989 0.414,0.989 c0.228,0 0.305,0.175 0.172,0.39 c-0.132,0.215 -0.06,0.391 0.16,0.391 c0.221,0 0.289,0.292 0.152,0.65 c-0.166,0.434 -0.099,0.557 0.203,0.37 c0.287,-0.177 0.375,-0.076 0.24,0.276 c-0.118,0.306 0.052,0.822 0.376,1.146 c0.325,0.324 0.481,0.699 0.348,0.832 c-0.133,0.133 -0.026,0.242 0.237,0.242 c0.263,-10e-4 0.379,0.16 0.258,0.357 c-0.121,0.196 -0.045,0.416 0.169,0.488 c0.214,0.072 0.429,0.614 0.478,1.205 c0.049,0.591 0.237,1.075 0.417,1.075 c0.181,0 0.202,0.205 0.046,0.457 c-0.191,0.31 -0.067,0.374 0.388,0.199 c0.426,-0.163 0.576,-0.105 0.412,0.161 c-0.142,0.23 0.245,0.958 0.859,1.618 c0.614,0.661 0.897,1.076 0.628,0.922 c-0.268,-0.153 -0.488,-0.087 -0.488,0.147 c0,0.235 0.227,0.513 0.504,0.62 c0.277,0.106 0.532,0.569 0.566,1.028 c0.035,0.46 0.335,1.071 0.667,1.358 c0.332,0.288 0.429,0.312 0.215,0.053 c-0.214,-0.258 -0.384,-0.654 -0.377,-0.88 c0.013,-0.46 0.906,0.934 0.988,1.543 c0.029,0.215 0.079,0.621 0.112,0.902 c0.033,0.281 0.217,0.414 0.409,0.295 c0.193,-0.119 0.454,0.056 0.582,0.388 c0.144,0.376 0.071,0.505 -0.194,0.341 c-0.288,-0.178 -0.28,0.008 0.024,0.577 c0.247,0.462 0.617,0.736 0.821,0.61 c0.204,-0.126 0.391,0.001 0.416,0.282 c0.024,0.281 0.068,0.775 0.097,1.097 c0.029,0.323 0.294,0.535 0.589,0.473 c0.33,-0.07 0.452,0.105 0.318,0.454 c-0.126,0.33 0.352,1.155 1.146,1.972 c0.774,0.797 1.243,1.597 1.086,1.852 c-0.171,0.277 -0.105,0.341 0.174,0.169 c0.286,-0.176 0.451,0.02 0.451,0.538 c0,0.449 0.263,0.918 0.584,1.041 c0.321,0.123 0.481,0.389 0.357,0.591 c-0.256,0.413 0.574,1.578 0.959,1.345 c0.136,-0.083 0.592,0.314 1.011,0.883 c0.523,0.709 0.565,0.874 0.133,0.527 c-0.424,-0.342 -0.714,-0.374 -0.884,-0.098 c-0.139,0.225 -0.099,0.409 0.09,0.41 c0.767,0 3.324,2.677 3.104,3.25 c-0.125,0.327 0.024,0.687 0.335,0.806 c0.308,0.119 0.561,0.397 0.561,0.619 c0,0.605 1.454,1.939 1.788,1.64 c0.16,-0.144 0.177,-0.063 0.04,0.178 c-0.138,0.242 0.167,0.89 0.677,1.441 c0.511,0.551 0.83,1.1 0.709,1.221 c-0.121,0.121 0.063,0.22 0.409,0.22 c0.345,0 0.735,0.173 0.866,0.386 c0.141,0.228 -0.05,0.289 -0.465,0.148 c-0.387,-0.13 -0.045,0.23 0.761,0.8 c1.408,0.997 1.991,1.712 0.977,1.199 c-0.269,-0.136 -0.147,0.029 0.27,0.367 c0.417,0.338 0.55,0.615 0.296,0.615 c-0.254,0 0.087,0.524 0.757,1.164 c0.669,0.641 1.415,1.052 1.656,0.914 c0.241,-0.137 0.318,-0.116 0.171,0.048 c-0.148,0.164 0.204,0.742 0.781,1.283 c0.577,0.542 0.713,0.744 0.303,0.448 c-0.7,-0.503 -0.714,-0.484 -0.224,0.303 c0.31,0.497 0.76,0.749 1.104,0.618 c0.359,-0.138 0.479,-0.06 0.314,0.207 c-0.146,0.237 0.065,0.662 0.47,0.945 c0.404,0.284 0.758,0.691 0.787,0.906 c0.029,0.215 0.214,0.391 0.411,0.391 c0.197,0 0.505,0.16 0.684,0.355 c0.189,0.207 0.12,0.238 -0.163,0.075 c-0.632,-0.364 -0.63,0.07 0.003,0.703 c0.271,0.271 0.694,0.425 0.941,0.342 c0.247,-0.082 0.58,0.063 0.74,0.322 c0.194,0.314 0.127,0.37 -0.2,0.168 c-0.271,-0.168 -0.192,0.153 0.178,0.718 c0.368,0.561 0.782,0.955 0.92,0.874 c0.137,-0.081 0.953,0.571 1.812,1.447 c0.938,0.957 1.096,1.212 0.396,0.639 c-0.765,-0.627 -0.564,-0.281 0.586,1.003 c1.028,1.149 1.871,1.795 2.04,1.562 c0.277,-0.383 0.457,-0.03 0.345,0.678 c-0.026,0.162 0.173,0.249 0.442,0.196 c0.268,-0.054 0.44,0.135 0.381,0.419 c-0.059,0.285 0.049,0.421 0.241,0.303 c0.538,-0.333 1.744,1.205 1.404,1.792 c-0.163,0.282 -0.15,0.381 0.028,0.219 c0.178,-0.161 0.676,0.014 1.106,0.391 c0.461,0.403 0.65,0.459 0.46,0.136 c-0.225,-0.382 -0.178,-0.459 0.155,-0.254 c0.262,0.163 0.391,0.52 0.286,0.794 c-0.199,0.519 0.437,1.376 1.021,1.376 c0.184,0 0.209,-0.22 0.054,-0.489 c-0.163,-0.283 -0.132,-0.352 0.075,-0.163 c0.195,0.179 0.355,0.531 0.355,0.782 c0,0.25 0.234,0.455 0.52,0.455 c0.286,0 0.763,0.44 1.061,0.977 c0.344,0.623 0.559,0.764 0.593,0.391 c0.029,-0.323 0.175,-0.147 0.325,0.39 c0.171,0.612 0.556,0.977 1.03,0.978 c0.433,0 0.819,0.318 0.9,0.74 c0.114,0.591 0.212,0.63 0.488,0.194 c0.284,-0.449 0.346,-0.437 0.351,0.069 c0.008,0.838 1.848,2.42 2.099,1.804 c0.104,-0.255 0.203,-0.146 0.22,0.242 c0.017,0.389 0.194,0.606 0.394,0.482 c0.2,-0.123 0.491,-0.019 0.646,0.233 c0.177,0.285 0.114,0.352 -0.168,0.178 c-0.248,-0.153 -0.45,-0.136 -0.448,0.038 c10e-4,0.173 0.537,0.62 1.19,0.992 c0.716,0.407 1.091,0.485 0.945,0.195 c-0.134,-0.264 0.007,-0.176 0.313,0.197 c0.306,0.372 0.699,0.548 0.873,0.39 c0.174,-0.157 0.206,0.021 0.071,0.397 c-0.135,0.376 -0.075,0.684 0.133,0.684 c0.82,0 0.976,0.075 1.281,0.622 c0.175,0.311 0.509,0.447 0.744,0.302 c0.235,-0.145 0.335,-0.105 0.223,0.09 c-0.112,0.194 0.212,0.755 0.721,1.246 c0.509,0.491 0.925,0.701 0.925,0.468 c0,-0.234 0.439,0.049 0.977,0.629 c0.537,0.58 0.976,0.832 0.976,0.56 c0,-0.271 0.704,0.211 1.565,1.071 c0.86,0.861 1.871,1.541 2.246,1.511 c0.375,-0.03 0.637,0.166 0.584,0.434 c-0.054,0.271 0.28,0.489 0.748,0.489 c0.466,0 0.725,0.121 0.577,0.27 c-0.149,0.148 0.305,0.464 1.009,0.702 c0.703,0.238 1.237,0.638 1.186,0.888 c-0.051,0.25 0.151,0.362 0.449,0.247 c0.35,-0.134 0.522,0.044 0.484,0.502 c-0.039,0.47 0.206,0.711 0.722,0.711 c0.43,0 0.975,0.247 1.211,0.548 c0.236,0.301 0.631,0.423 0.879,0.27 c0.266,-0.165 0.449,-0.029 0.449,0.331 c0,0.335 0.132,0.622 0.293,0.639 c1.205,0.123 1.844,0.394 2.13,0.906 c0.183,0.326 0.568,0.503 0.857,0.393 c0.309,-0.119 0.614,0.142 0.743,0.637 c0.165,0.63 0.415,0.776 1.006,0.588 c0.577,-0.182 0.962,0.017 1.44,0.747 c0.359,0.547 0.838,0.996 1.065,0.996 c0.227,0 0.734,0.291 1.127,0.646 c0.393,0.356 0.715,0.458 0.715,0.228 c0,-0.23 -0.22,-0.507 -0.489,-0.616 c-0.312,-0.126 -0.328,-0.208 -0.045,-0.228 c0.244,-0.016 0.725,0.399 1.069,0.925 c0.405,0.617 0.902,0.902 1.405,0.805 c0.453,-0.087 0.74,0.044 0.688,0.314 c-0.049,0.256 0.288,0.453 0.75,0.438 c0.587,-0.019 0.773,0.147 0.617,0.552 c-0.147,0.385 -0.063,0.481 0.252,0.286 c0.261,-0.161 0.722,-0.087 1.026,0.165 c0.303,0.252 0.762,0.328 1.02,0.169 c0.317,-0.196 0.365,-0.123 0.148,0.228 c-0.23,0.372 -0.143,0.45 0.31,0.275 c0.462,-0.177 0.567,-0.075 0.391,0.382 c-0.19,0.495 -0.035,0.585 0.748,0.436 c0.666,-0.128 1.125,0.033 1.414,0.496 c0.272,0.435 0.718,0.608 1.226,0.476 c0.441,-0.116 0.798,-0.02 0.798,0.215 c0,0.233 0.246,0.329 0.546,0.214 c0.301,-0.115 0.679,0.005 0.842,0.268 c0.188,0.305 0.132,0.377 -0.156,0.199 c-0.248,-0.153 -0.451,-0.072 -0.451,0.18 c0,0.281 0.384,0.386 0.99,0.27 c0.545,-0.104 0.899,-0.098 0.787,0.014 c-0.287,0.287 1.037,1.23 1.739,1.238 c0.52,0.006 0.52,-0.036 0,-0.372 c-0.41,-0.265 -0.436,-0.381 -0.086,-0.385 c0.275,-0.003 0.603,0.261 0.728,0.587 c0.125,0.326 0.427,0.569 0.671,0.54 c0.948,-0.114 1.457,0.055 1.238,0.41 c-0.277,0.447 1.024,1.201 2.013,1.167 c0.574,-0.02 0.542,-0.092 -0.17,-0.378 c-1.308,-0.526 -1.064,-0.793 0.293,-0.32 c0.645,0.224 1.172,0.561 1.172,0.748 c0,0.188 0.292,0.228 0.65,0.091 c0.434,-0.166 0.557,-0.099 0.37,0.203 c-0.177,0.287 -0.076,0.375 0.276,0.239 c0.306,-0.117 0.832,0.063 1.17,0.401 c0.337,0.337 1.149,0.675 1.803,0.751 c0.655,0.077 1.428,0.337 1.719,0.578 c0.291,0.242 0.645,0.323 0.786,0.182 c0.141,-0.141 0.257,-0.031 0.257,0.244 c0,0.309 0.3,0.423 0.782,0.297 c0.492,-0.129 0.687,-0.05 0.525,0.211 c-0.165,0.267 0.046,0.337 0.586,0.196 c0.463,-0.121 0.752,-0.074 0.641,0.105 c-0.172,0.278 1.004,0.889 1.828,0.949 c0.143,0.011 0.391,0.15 0.55,0.309 c0.159,0.16 0.559,0.072 0.889,-0.195 c0.492,-0.398 0.539,-0.386 0.265,0.07 c-0.251,0.416 -0.172,0.492 0.315,0.305 c0.358,-0.137 0.65,-0.106 0.65,0.069 c0,0.176 0.554,0.335 1.232,0.354 c0.677,0.02 1.362,0.246 1.521,0.504 c0.159,0.258 0.835,0.489 1.502,0.513 c0.667,0.024 1.213,0.183 1.213,0.354 c0.001,0.17 0.221,0.281 0.489,0.247 c1.418,-0.184 2.663,0.062 2.407,0.476 c-0.196,0.317 0.035,0.37 0.791,0.18 c0.721,-0.181 0.983,-0.131 0.806,0.154 c-0.176,0.285 0.086,0.335 0.807,0.154 c0.774,-0.194 0.989,-0.14 0.781,0.195 c-0.207,0.336 0.008,0.39 0.782,0.196 c0.821,-0.207 0.995,-0.151 0.752,0.241 c-0.232,0.375 -0.1,0.453 0.503,0.295 c0.499,-0.13 0.898,-0.002 1.025,0.329 c0.115,0.299 0.488,0.543 0.83,0.543 c0.393,0 0.513,-0.179 0.328,-0.488 c-0.202,-0.337 -0.09,-0.323 0.362,0.044 c0.361,0.292 0.908,0.435 1.215,0.317 c0.307,-0.118 0.667,0.068 0.799,0.412 c0.183,0.478 0.349,0.519 0.696,0.171 c0.542,-0.542 1.617,-0.617 1.292,-0.09 c-0.129,0.208 0.213,0.287 0.789,0.182 c0.724,-0.131 0.932,-0.049 0.725,0.286 c-0.194,0.315 -0.091,0.394 0.312,0.24 c0.331,-0.128 0.756,-0.088 0.943,0.087 c0.576,0.54 3.016,0.939 2.71,0.443 c-0.147,-0.237 -0.081,-0.432 0.147,-0.432 c0.227,0 0.413,0.19 0.413,0.422 c0,0.262 0.429,0.327 1.135,0.172 c0.658,-0.144 1.244,-0.073 1.394,0.171 c0.143,0.231 0.411,0.326 0.596,0.212 c0.185,-0.115 0.459,-0.011 0.608,0.23 c0.193,0.313 0.362,0.291 0.589,-0.076 c0.253,-0.408 0.482,-0.366 1.116,0.208 c0.56,0.507 0.945,0.605 1.293,0.331 c0.774,-0.611 1.825,-0.462 1.563,0.221 c-0.168,0.436 -0.047,0.52 0.464,0.324 c1.574,-0.605 2.57,-0.722 2.57,-0.304 c0,0.238 0.187,0.433 0.414,0.433 c0.228,0 0.282,-0.22 0.12,-0.489 c-0.224,-0.373 -0.161,-0.385 0.27,-0.048 c0.31,0.241 1.003,0.397 1.54,0.346 c0.537,-0.051 1.159,0.049 1.381,0.222 c0.223,0.174 1.409,0.255 2.637,0.181 c1.228,-0.074 2.232,-0.006 2.232,0.151 c0,0.462 27.107,0.354 27.412,-0.108 c0.174,-0.265 0.46,-0.237 0.844,0.082 c0.35,0.29 0.673,0.333 0.811,0.109 c0.127,-0.205 0.582,-0.281 1.012,-0.169 c1.264,0.331 0.912,-0.332 -1.283,-2.418 c-1.135,-1.078 -1.618,-1.609 -1.074,-1.18 l0.989,0.782 l-0.947,-1.075 c-0.521,-0.59 -1.17,-1.074 -1.442,-1.074 c-0.272,0 -0.62,-0.203 -0.773,-0.451 c-0.184,-0.297 -0.092,-0.352 0.27,-0.161 c0.301,0.159 0.178,-0.033 -0.274,-0.428 c-0.452,-0.395 -0.93,-1.025 -1.062,-1.401 c-0.132,-0.376 -0.519,-0.684 -0.861,-0.684 c-0.342,0 -0.522,-0.16 -0.401,-0.356 c0.121,-0.196 -0.264,-0.737 -0.856,-1.201 c-0.592,-0.465 -0.829,-0.716 -0.527,-0.56 c0.361,0.187 0.453,0.13 0.27,-0.166 c-0.154,-0.248 -0.562,-0.451 -0.907,-0.451 c-0.345,0 -0.518,-0.11 -0.384,-0.244 c0.134,-0.134 -0.144,-0.587 -0.619,-1.006 c-0.474,-0.42 -0.615,-0.634 -0.313,-0.477 c0.361,0.187 0.453,0.131 0.27,-0.166 c-0.154,-0.248 -0.562,-0.451 -0.907,-0.451 c-0.345,0 -0.518,-0.11 -0.384,-0.244 c0.134,-0.134 -0.145,-0.587 -0.619,-1.006 c-0.474,-0.419 -0.598,-0.641 -0.276,-0.492 c0.322,0.148 -0.029,-0.298 -0.781,-0.992 c-0.752,-0.695 -1.121,-1.127 -0.819,-0.962 c0.365,0.2 0.455,0.15 0.27,-0.15 c-0.153,-0.248 -0.542,-0.451 -0.865,-0.451 c-0.322,0 -0.488,-0.157 -0.369,-0.349 c0.118,-0.193 -0.049,-0.452 -0.372,-0.576 c-0.323,-0.123 -0.541,-0.45 -0.486,-0.724 c0.056,-0.275 -0.074,-0.472 -0.289,-0.438 c-0.215,0.034 -0.73,-0.406 -1.145,-0.977 l-0.755,-1.037 l0.937,0.781 c0.515,0.43 0.164,-0.186 -0.782,-1.367 c-0.945,-1.182 -1.947,-2.342 -2.227,-2.578 c-0.279,-0.236 -0.419,-0.518 -0.31,-0.627 c0.109,-0.109 -0.552,-0.971 -1.468,-1.915 c-0.916,-0.944 -1.619,-1.923 -1.561,-2.175 c0.058,-0.252 -0.245,-0.704 -0.672,-1.003 c-0.428,-0.3 -1.175,-1.06 -1.66,-1.69 c-0.707,-0.916 -0.734,-1.028 -0.135,-0.559 c0.581,0.455 0.54,0.302 -0.182,-0.684 c-0.511,-0.698 -1.082,-1.269 -1.269,-1.269 c-0.188,0 -0.231,-0.177 -0.097,-0.394 c0.133,-0.216 -0.031,-0.498 -0.366,-0.627 c-0.334,-0.128 -0.51,-0.392 -0.39,-0.585 c0.119,-0.194 -0.056,-0.458 -0.391,-0.586 c-0.335,-0.129 -0.51,-0.392 -0.391,-0.586 c0.12,-0.194 -0.056,-0.458 -0.39,-0.586 c-0.335,-0.129 -0.511,-0.392 -0.391,-0.586 c0.12,-0.194 -0.056,-0.458 -0.391,-0.586 c-0.334,-0.129 -0.516,-0.382 -0.404,-0.564 c0.112,-0.181 -0.166,-0.528 -0.618,-0.77 c-0.491,-0.262 -0.734,-0.673 -0.602,-1.016 c0.124,-0.324 0.052,-0.472 -0.165,-0.338 c-0.316,0.195 -0.561,-0.33 -0.32,-0.686 c0.195,-0.288 -0.938,-1.846 -1.217,-1.674 c-0.181,0.112 -0.434,-0.068 -0.561,-0.4 c-0.156,-0.406 -0.074,-0.512 0.252,-0.324 c0.266,0.154 0,-0.181 -0.591,-0.743 c-1.131,-1.076 -1.407,-1.664 -0.586,-1.248 c0.269,0.136 0.139,-0.035 -0.288,-0.381 c-0.427,-0.346 -0.779,-0.846 -0.781,-1.111 c-0.003,-0.265 -0.405,-0.912 -0.893,-1.437 c-0.489,-0.526 -0.802,-1.182 -0.696,-1.458 c0.106,-0.276 -0.373,-1.152 -1.065,-1.946 c-0.691,-0.794 -1.039,-1.312 -0.773,-1.151 c0.329,0.199 0.409,0.098 0.251,-0.314 c-0.128,-0.334 -0.4,-0.606 -0.605,-0.606 c-0.204,0 -0.267,-0.17 -0.139,-0.377 c0.128,-0.207 -0.111,-0.719 -0.53,-1.139 c-0.42,-0.42 -0.661,-0.866 -0.535,-0.991 c0.125,-0.125 0.012,-0.228 -0.251,-0.228 c-0.264,0 -0.37,-0.176 -0.238,-0.39 c0.133,-0.215 0.07,-0.391 -0.141,-0.391 c-0.21,0 -0.498,-0.527 -0.64,-1.172 c-0.142,-0.644 -0.43,-1.172 -0.64,-1.172 c-0.21,0 -0.274,-0.176 -0.141,-0.39 c0.133,-0.215 0.045,-0.391 -0.196,-0.391 c-0.24,0 -0.328,-0.176 -0.195,-0.391 c0.133,-0.214 0.093,-0.39 -0.089,-0.39 c-0.182,0 -0.359,-0.38 -0.394,-0.844 c-0.035,-0.464 -0.263,-0.967 -0.507,-1.118 c-0.244,-0.151 -0.429,-0.386 -0.41,-0.523 c0.104,-0.78 -0.011,-1.05 -0.358,-0.836 c-0.372,0.231 -0.566,-0.569 -0.41,-1.699 c0.039,-0.29 -0.114,-0.413 -0.34,-0.273 c-0.251,0.155 -0.321,0.018 -0.18,-0.351 c0.128,-0.333 0.038,-0.606 -0.2,-0.606 c-0.238,0 -0.411,-0.132 -0.386,-0.293 c0.134,-0.846 -0.09,-1.68 -0.399,-1.489 c-0.442,0.274 -1.29,-2.069 -0.949,-2.62 c0.157,-0.255 0.057,-0.287 -0.267,-0.087 c-0.373,0.231 -0.449,0.143 -0.272,-0.317 c0.134,-0.351 0.073,-0.744 -0.136,-0.873 c-0.209,-0.129 -0.278,-0.398 -0.155,-0.598 c0.124,-0.2 0.044,-0.364 -0.177,-0.364 c-0.22,0 -0.289,-0.292 -0.152,-0.65 c0.178,-0.462 0.106,-0.561 -0.249,-0.342 c-0.37,0.229 -0.431,0.094 -0.235,-0.521 c0.166,-0.525 0.094,-0.831 -0.196,-0.831 c-0.252,0 -0.357,-0.263 -0.233,-0.586 c0.123,-0.322 0.061,-0.585 -0.139,-0.585 c-0.4,0 -1.314,-2.915 -1.257,-4.013 c0.02,-0.403 -0.142,-0.583 -0.389,-0.43 c-0.279,0.173 -0.356,-0.09 -0.225,-0.773 c0.108,-0.569 0.052,-1.035 -0.127,-1.035 c-0.178,0 -0.223,-0.263 -0.099,-0.585 c0.124,-0.323 0.012,-0.586 -0.249,-0.586 c-0.278,0 -0.374,-0.264 -0.231,-0.636 c0.134,-0.349 0.045,-0.874 -0.197,-1.167 c-0.243,-0.292 -0.336,-0.806 -0.207,-1.142 c0.152,-0.395 0.078,-0.514 -0.208,-0.338 c-0.3,0.186 -0.382,-0.041 -0.255,-0.707 c0.131,-0.686 -0.04,-1.123 -0.57,-1.454 c-0.452,-0.282 -0.653,-0.304 -0.499,-0.054 c0.382,0.617 -0.031,0.51 -0.73,-0.189 c-0.534,-0.534 -1.252,-0.733 -3.279,-0.909 c-0.281,-0.025 -0.403,-0.221 -0.27,-0.436 c0.247,-0.398 -0.242,-0.535 -1.467,-0.41 c-0.378,0.038 -0.796,-0.215 -0.93,-0.564 c-0.133,-0.348 -0.471,-0.545 -0.75,-0.438 c-0.278,0.107 -0.708,-0.049 -0.954,-0.345 c-0.247,-0.297 -0.728,-0.433 -1.07,-0.301 c-0.412,0.158 -0.526,0.084 -0.339,-0.219 c0.25,-0.404 0.012,-0.532 -0.794,-0.424 c-0.137,0.019 -0.357,-0.133 -0.488,-0.338 c-0.373,-0.579 -3.434,-2.034 -3.706,-1.762 c-0.134,0.134 -0.244,0.058 -0.244,-0.17 c0,-0.228 -0.273,-0.518 -0.606,-0.646 c-0.409,-0.157 -0.516,-0.075 -0.328,0.251 c0.153,0.266 -0.189,0.057 -0.761,-0.463 c-0.572,-0.521 -1.045,-0.785 -1.051,-0.586 c-0.007,0.198 -0.193,0.049 -0.415,-0.331 c-0.221,-0.381 -0.556,-0.597 -0.744,-0.481 c-0.188,0.116 -0.794,-0.241 -1.346,-0.794 c-0.553,-0.553 -1.161,-0.909 -1.352,-0.791 c-0.19,0.118 -0.451,-0.06 -0.58,-0.394 c-0.128,-0.335 -0.392,-0.511 -0.586,-0.391 c-0.194,0.12 -0.457,-0.056 -0.586,-0.391 c-0.128,-0.334 -0.41,-0.499 -0.627,-0.365 c-0.216,0.134 -0.393,0.077 -0.393,-0.126 c0,-0.202 -0.461,-0.67 -1.025,-1.04 c-0.701,-0.459 -0.938,-0.504 -0.752,-0.142 c0.15,0.291 -0.017,0.177 -0.37,-0.253 c-0.353,-0.429 -0.806,-0.737 -1.006,-0.683 c-0.199,0.053 -0.363,-0.078 -0.363,-0.293 c0,-0.215 -0.171,-0.347 -0.381,-0.293 c-0.21,0.053 -0.838,-0.43 -1.395,-1.074 c-0.558,-0.645 -0.895,-0.909 -0.748,-0.586 c0.146,0.322 -0.148,0.138 -0.655,-0.409 c-0.507,-0.548 -0.768,-0.723 -0.58,-0.391 c0.189,0.332 -0.405,-0.187 -1.319,-1.153 c-0.914,-0.967 -1.507,-1.486 -1.319,-1.154 c0.233,0.411 0.14,0.386 -0.292,-0.081 c-0.35,-0.377 -0.745,-0.576 -0.879,-0.442 c-0.134,0.134 -0.244,-0.043 -0.244,-0.395 c0,-0.686 -2.193,-2.491 -2.811,-2.313 c-0.205,0.059 -0.284,-0.036 -0.176,-0.21 c0.276,-0.447 -7.357,-7.978 -7.719,-7.616 c-0.163,0.163 -0.238,0.089 -0.167,-0.164 c0.072,-0.254 -0.221,-0.75 -0.651,-1.103 c-0.429,-0.354 -0.517,-0.512 -0.195,-0.352 c0.392,0.195 0.34,0.011 -0.158,-0.556 c-0.409,-0.467 -1.01,-0.849 -1.335,-0.849 c-0.324,0 -0.48,-0.11 -0.346,-0.244 c0.134,-0.134 -0.065,-0.529 -0.442,-0.879 c-0.471,-0.436 -0.497,-0.53 -0.081,-0.298 c0.332,0.185 -0.099,-0.325 -0.958,-1.133 c-0.86,-0.809 -1.318,-1.33 -1.018,-1.158 c0.3,0.172 -0.205,-0.681 -1.121,-1.894 c-0.916,-1.214 -1.831,-2.206 -2.033,-2.206 c-0.201,0 -0.263,-0.167 -0.137,-0.371 c0.126,-0.204 -0.127,-0.562 -0.563,-0.795 c-0.436,-0.234 -0.792,-0.78 -0.792,-1.215 c0,-0.435 -0.176,-0.682 -0.391,-0.549 c-0.215,0.133 -0.39,-0.112 -0.39,-0.544 c0,-0.431 -0.252,-0.925 -0.559,-1.097 c-0.307,-0.172 -0.575,-0.442 -0.596,-0.601 c-0.103,-0.775 -0.523,-1.444 -0.799,-1.274 c-0.169,0.105 -0.413,-0.081 -0.54,-0.413 c-0.152,-0.397 -0.066,-0.52 0.252,-0.359 c0.266,0.134 0.132,-0.041 -0.298,-0.389 c-0.429,-0.348 -0.784,-0.852 -0.788,-1.119 c-0.003,-0.268 -0.403,-0.913 -0.888,-1.433 c-0.485,-0.521 -0.795,-1.173 -0.689,-1.449 c0.106,-0.276 0.022,-0.502 -0.186,-0.502 c-0.208,0 -0.336,-0.132 -0.285,-0.293 c0.173,-0.548 -0.964,-2.823 -1.306,-2.611 c-0.187,0.116 -0.225,-0.091 -0.084,-0.46 c0.174,-0.452 0.11,-0.579 -0.195,-0.39 c-0.305,0.188 -0.369,0.061 -0.195,-0.391 c0.173,-0.452 0.109,-0.579 -0.196,-0.391 c-0.295,0.183 -0.371,0.07 -0.219,-0.326 c0.128,-0.334 0.038,-0.607 -0.2,-0.606 c-0.238,0 -0.412,-0.132 -0.386,-0.293 c0.125,-0.797 -0.09,-1.289 -0.463,-1.059 c-0.23,0.142 -0.385,0.021 -0.345,-0.269 c0.167,-1.212 -0.037,-1.931 -0.471,-1.663 c-0.28,0.174 -0.345,0.108 -0.17,-0.175 c0.154,-0.249 0.013,-0.721 -0.314,-1.048 c-0.327,-0.327 -0.495,-0.853 -0.374,-1.169 c0.122,-0.316 0.016,-0.574 -0.235,-0.574 c-0.25,0 -0.346,-0.176 -0.214,-0.391 c0.133,-0.215 0.061,-0.391 -0.16,-0.391 c-0.22,0 -0.289,-0.292 -0.152,-0.65 c0.156,-0.405 0.094,-0.554 -0.163,-0.395 c-0.227,0.14 -0.504,-0.095 -0.616,-0.522 c-0.112,-0.428 -0.046,-0.68 0.147,-0.561 c0.192,0.118 0.245,-0.057 0.117,-0.391 c-0.128,-0.333 -0.409,-0.606 -0.623,-0.606 c-0.215,0 -0.286,-0.273 -0.158,-0.606 c0.145,-0.38 0.072,-0.507 -0.196,-0.342 c-0.289,0.179 -0.337,-0.02 -0.149,-0.614 c0.177,-0.558 0.134,-0.79 -0.117,-0.635 c-0.238,0.148 -0.315,-0.066 -0.191,-0.537 c0.122,-0.467 0.012,-0.781 -0.274,-0.781 c-0.264,0 -0.377,-0.262 -0.253,-0.586 c0.124,-0.323 0.065,-0.586 -0.131,-0.586 c-0.196,0 -0.288,-0.352 -0.206,-0.781 c0.083,-0.43 -0.009,-0.782 -0.205,-0.782 c-0.196,0 -0.244,-0.292 -0.107,-0.65 c0.168,-0.438 0.1,-0.557 -0.208,-0.367 c-0.31,0.192 -0.415,0 -0.325,-0.593 c0.074,-0.482 -0.27,-2.031 -0.763,-3.442 c-0.493,-1.411 -0.797,-2.96 -0.676,-3.444 c0.131,-0.522 0.042,-0.879 -0.22,-0.879 c-0.275,0 -0.348,-0.367 -0.195,-0.976 c0.158,-0.631 0.081,-0.977 -0.219,-0.977 c-0.312,0 -0.38,-0.383 -0.207,-1.172 c0.169,-0.768 0.104,-1.172 -0.189,-1.172 c-0.245,0 -0.395,-0.307 -0.333,-0.683 c0.062,-0.376 -0.042,-0.931 -0.231,-1.232 c-0.246,-0.392 -0.204,-0.462 0.146,-0.246 c0.379,0.234 0.395,0.126 0.073,-0.476 c-0.229,-0.428 -0.345,-1.153 -0.257,-1.61 c0.089,-0.457 0.005,-0.831 -0.185,-0.831 c-0.19,0 -0.272,-0.879 -0.181,-1.953 c0.09,-1.074 0.036,-1.953 -0.121,-1.953 c-0.339,0 -0.358,-18.385 -0.019,-18.947 c0.129,-0.214 0.179,-1.136 0.111,-2.049 c-0.067,-0.913 0.009,-1.66 0.169,-1.66 c0.161,0 0.266,-0.695 0.235,-1.544 c-0.034,-0.912 0.097,-1.447 0.321,-1.309 c0.234,0.145 0.276,-0.178 0.111,-0.837 c-0.168,-0.67 -0.079,-1.307 0.236,-1.696 c0.426,-0.526 0.413,-0.57 -0.081,-0.278 c-0.486,0.286 -0.504,0.243 -0.101,-0.254 c0.267,-0.33 0.36,-0.725 0.207,-0.878 c-0.153,-0.153 -0.056,-0.416 0.216,-0.584 c0.276,-0.17 0.543,-1.244 0.604,-2.42 c0.059,-1.163 0.317,-2.503 0.573,-2.977 c0.256,-0.475 0.418,-1.09 0.362,-1.368 c-0.057,-0.277 0.124,-0.457 0.402,-0.4 c0.388,0.079 0.407,-0.079 0.084,-0.684 c-0.232,-0.433 -0.264,-0.787 -0.071,-0.787 c0.192,0 0.261,-0.465 0.152,-1.034 c-0.15,-0.786 -0.074,-0.959 0.316,-0.718 c0.372,0.23 0.445,0.138 0.264,-0.332 c-0.137,-0.358 -0.067,-0.65 0.156,-0.65 c0.227,0 0.295,-0.343 0.156,-0.781 c-0.152,-0.481 -0.07,-0.782 0.215,-0.782 c0.27,0 0.377,-0.325 0.258,-0.782 c-0.129,-0.492 -0.051,-0.686 0.211,-0.524 c0.267,0.164 0.337,-0.046 0.196,-0.586 c-0.142,-0.54 -0.072,-0.751 0.195,-0.586 c0.266,0.164 0.336,-0.046 0.195,-0.586 c-0.142,-0.546 -0.072,-0.751 0.2,-0.583 c0.266,0.164 0.329,0.021 0.171,-0.39 c-0.137,-0.358 -0.084,-0.65 0.117,-0.65 c0.201,0 0.254,-0.293 0.117,-0.65 c-0.181,-0.472 -0.108,-0.563 0.268,-0.331 c0.36,0.223 0.424,0.17 0.211,-0.174 c-0.168,-0.273 -0.125,-0.607 0.096,-0.744 c0.221,-0.138 0.463,-0.601 0.539,-1.031 c0.075,-0.43 0.224,-0.869 0.332,-0.976 c0.451,-0.452 1.542,-3.159 1.183,-2.937 c-0.229,0.141 -0.296,-0.01 -0.161,-0.364 c0.128,-0.333 0.385,-0.606 0.57,-0.606 c0.185,0 0.236,-0.262 0.113,-0.582 c-0.13,-0.338 0.049,-0.688 0.425,-0.832 c0.359,-0.138 0.553,-0.498 0.436,-0.805 c-0.136,-0.352 -0.048,-0.453 0.239,-0.276 c0.305,0.188 0.369,0.061 0.195,-0.391 c-0.141,-0.368 -0.102,-0.574 0.088,-0.457 c0.417,0.258 0.911,-0.878 0.601,-1.38 c-0.121,-0.195 -0.023,-0.355 0.217,-0.355 c0.24,0 0.339,-0.157 0.22,-0.35 c-0.118,-0.192 0.065,-0.457 0.409,-0.589 c0.367,-0.141 0.529,-0.488 0.392,-0.842 c-0.132,-0.345 -0.066,-0.501 0.155,-0.365 c0.213,0.132 0.407,0.009 0.431,-0.272 c0.105,-1.189 0.183,-1.378 0.838,-2.034 c0.378,-0.379 0.57,-0.878 0.428,-1.108 c-0.154,-0.249 -0.076,-0.306 0.192,-0.141 c0.248,0.153 0.472,0.092 0.499,-0.135 c0.027,-0.228 0.093,-0.59 0.147,-0.804 c0.054,-0.215 0.119,-0.577 0.146,-0.805 c0.027,-0.227 0.225,-0.305 0.44,-0.172 c0.215,0.133 0.39,0.055 0.39,-0.172 c0,-0.858 0.07,-1.008 0.614,-1.312 c0.307,-0.172 0.558,-0.622 0.558,-1 c0,-0.378 0.277,-1.028 0.615,-1.445 c0.338,-0.417 0.499,-0.495 0.357,-0.173 c-0.142,0.323 0.09,0.158 0.516,-0.366 c0.426,-0.524 0.692,-1.17 0.59,-1.436 c-0.102,-0.266 0.267,-0.78 0.821,-1.143 c0.554,-0.363 1.008,-0.897 1.008,-1.187 c0,-0.29 0.366,-0.724 0.814,-0.964 c0.448,-0.239 0.73,-0.52 0.627,-0.623 c-0.103,-0.104 0.227,-0.636 0.734,-1.183 c0.507,-0.547 0.884,-1.187 0.838,-1.423 c-0.046,-0.235 0.12,-0.436 0.369,-0.446 c0.639,-0.025 2.119,-1.997 1.78,-2.372 c-0.154,-0.17 -0.068,-0.188 0.191,-0.04 c0.277,0.159 0.739,-0.137 1.117,-0.715 c0.364,-0.554 0.841,-0.869 1.092,-0.719 c0.245,0.147 0.182,-0.064 -0.141,-0.469 c-0.322,-0.404 -0.403,-0.626 -0.18,-0.493 c0.522,0.311 8.882,-8.047 8.486,-8.484 c-0.164,-0.18 -0.087,-0.206 0.172,-0.058 c0.273,0.157 1.197,-0.428 2.214,-1.402 c0.959,-0.92 1.891,-1.716 2.069,-1.77 c0.179,-0.053 0.325,-0.317 0.325,-0.586 c0,-0.268 0.226,-0.488 0.503,-0.488 c0.276,0 0.647,-0.235 0.825,-0.521 c0.177,-0.287 0.478,-0.551 0.669,-0.586 c0.191,-0.036 0.296,-0.218 0.233,-0.406 c-0.062,-0.187 0.155,-0.238 0.483,-0.112 c0.359,0.138 0.759,-0.075 1.006,-0.538 c0.226,-0.421 0.648,-0.766 0.938,-0.766 c0.29,-0.001 0.824,-0.454 1.187,-1.008 c0.363,-0.554 0.877,-0.923 1.143,-0.821 c0.266,0.102 0.912,-0.164 1.436,-0.59 c0.524,-0.426 0.689,-0.658 0.366,-0.516 c-0.322,0.142 -0.244,-0.019 0.173,-0.357 c0.417,-0.338 1.067,-0.615 1.445,-0.615 c0.378,0 0.844,-0.279 1.035,-0.621 c0.191,-0.341 0.463,-0.605 0.605,-0.586 c0.787,0.107 1.059,-0.008 0.844,-0.355 c-0.133,-0.215 -0.055,-0.391 0.172,-0.391 c0.763,0 0.997,-0.114 1.517,-0.742 c0.392,-0.474 0.445,-0.483 0.218,-0.039 c-0.258,0.504 -0.207,0.511 0.362,0.05 c0.363,-0.295 0.672,-0.383 0.685,-0.196 c0.014,0.188 0.187,-0.063 0.385,-0.556 c0.204,-0.508 0.629,-0.847 0.979,-0.781 c0.506,0.095 0.649,-0.398 0.785,-2.716 c0.092,-1.558 0.016,-2.832 -0.168,-2.832 c-0.185,0 -0.294,-0.879 -0.243,-1.953 c0.05,-1.075 -0.043,-1.954 -0.207,-1.954 c-0.164,0 -0.239,-0.615 -0.166,-1.367 c0.073,-0.752 -0.037,-1.367 -0.245,-1.367 c-0.214,0 -0.265,-0.45 -0.118,-1.035 c0.145,-0.579 0.105,-0.939 -0.09,-0.818 c-0.193,0.119 -0.385,-0.426 -0.427,-1.212 c-0.042,-0.785 -0.097,-1.735 -0.122,-2.111 c-0.025,-0.376 -0.192,-0.683 -0.37,-0.683 c-0.179,0 -0.337,-0.396 -0.351,-0.879 c-0.054,-1.802 -0.173,-2.454 -0.534,-2.913 c-0.205,-0.259 -0.258,-0.655 -0.12,-0.879 c0.139,-0.224 0.072,-0.407 -0.149,-0.407 c-0.221,0 -0.3,-0.264 -0.177,-0.586 c0.124,-0.323 0.06,-0.586 -0.142,-0.586 c-0.202,0 -0.367,-0.543 -0.367,-1.207 c0,-0.663 -0.161,-1.322 -0.358,-1.464 c-0.422,-0.305 -0.677,-1.157 -0.633,-2.115 c0.017,-0.376 -0.129,-0.683 -0.323,-0.683 c-0.195,0 -0.253,-0.264 -0.13,-0.586 c0.124,-0.322 0.036,-0.586 -0.195,-0.586 c-0.231,0 -0.319,-0.264 -0.195,-0.586 c0.123,-0.322 0.036,-0.586 -0.196,-0.586 c-0.231,0 -0.319,-0.264 -0.195,-0.586 c0.124,-0.322 0.02,-0.586 -0.231,-0.586 c-0.25,0 -0.346,-0.177 -0.212,-0.393 c0.134,-0.217 -0.041,-0.679 -0.39,-1.027 c-0.348,-0.349 -0.541,-0.875 -0.428,-1.169 c0.113,-0.295 0.041,-0.536 -0.16,-0.536 c-0.201,0 -0.254,-0.292 -0.117,-0.65 c0.178,-0.462 0.105,-0.561 -0.249,-0.341 c-0.374,0.231 -0.429,0.087 -0.22,-0.571 c0.19,-0.599 0.141,-0.794 -0.154,-0.612 c-0.401,0.248 -0.616,-0.274 -0.457,-1.112 c0.109,-0.577 -0.871,-2.735 -1.438,-3.166 c-0.288,-0.218 -0.583,-0.922 -0.657,-1.562 c-0.074,-0.641 -0.155,-1.308 -0.179,-1.481 c-0.025,-0.174 -0.221,-0.208 -0.435,-0.075 c-0.215,0.133 -0.411,-0.077 -0.436,-0.465 c-0.123,-1.924 -0.692,-3.319 -1.221,-2.992 c-0.272,0.168 -0.342,0.037 -0.191,-0.357 c0.131,-0.341 -0.013,-0.83 -0.32,-1.085 c-0.307,-0.254 -0.462,-0.619 -0.344,-0.809 c0.118,-0.191 0.017,-0.347 -0.223,-0.347 c-0.24,0 -0.328,-0.176 -0.195,-0.39 c0.133,-0.215 0.045,-0.391 -0.195,-0.391 c-0.241,0 -0.337,-0.163 -0.214,-0.361 c0.279,-0.451 -0.567,-2.373 -1.044,-2.373 c-0.193,0 -0.242,-0.176 -0.11,-0.391 c0.133,-0.215 0.056,-0.391 -0.172,-0.391 c-0.227,0 -0.372,-0.131 -0.321,-0.293 c0.174,-0.548 -0.963,-2.823 -1.305,-2.611 c-0.188,0.116 -0.237,-0.061 -0.11,-0.392 c0.137,-0.356 -0.026,-0.702 -0.395,-0.844 c-0.344,-0.132 -0.626,-0.554 -0.626,-0.938 c0,-0.383 -0.275,-0.803 -0.611,-0.932 c-0.336,-0.129 -0.504,-0.406 -0.375,-0.616 c0.311,-0.503 -0.86,-2.749 -1.433,-2.749 c-0.245,0 -0.336,-0.11 -0.201,-0.244 c0.354,-0.354 -0.76,-2.354 -1.461,-2.623 c-0.339,-0.131 -0.495,-0.484 -0.364,-0.825 c0.13,-0.34 -0.023,-0.695 -0.354,-0.821 c-0.32,-0.123 -0.688,-0.752 -0.817,-1.397 c-0.13,-0.65 -0.411,-1.064 -0.63,-0.928 c-0.217,0.134 -0.4,-0.074 -0.407,-0.463 c-0.015,-0.859 -0.944,-2.159 -1.293,-1.81 c-0.139,0.139 -0.366,-0.319 -0.506,-1.016 c-0.139,-0.697 -0.491,-1.359 -0.781,-1.471 c-0.291,-0.111 -0.43,-0.361 -0.311,-0.555 c0.12,-0.194 -0.056,-0.457 -0.39,-0.586 c-0.335,-0.128 -0.529,-0.362 -0.432,-0.519 c0.097,-0.157 -0.082,-0.655 -0.398,-1.106 c-0.544,-0.778 -1.04,-0.885 -2.615,-0.562 m6.738,99.029 c0,0.066 -0.659,0.725 -1.465,1.465 l-1.465,1.346 l1.347,-1.464 c1.253,-1.364 1.583,-1.645 1.583,-1.347 m160.156,162.577 c-0.948,0.967 -1.813,1.758 -1.92,1.758 c-0.108,0 0.581,-0.791 1.53,-1.758 c0.949,-0.967 1.813,-1.758 1.92,-1.758 c0.108,0 -0.581,0.791 -1.53,1.758 " id="path0" stroke="none" fill-rule="evenodd" fill="black"></path><path id="path1" d="m 307.985,31.848 c 0.417,0.316 0.934,0.574 1.149,0.574 0.215,0 0.049,-0.258 -0.368,-0.574 -0.417,-0.315 -0.934,-0.573 -1.149,-0.573 -0.215,0 -0.049,0.258 0.368,0.573 m 30.882,24.402 c 0.839,0.859 1.614,1.563 1.721,1.563 0.108,0 -0.491,-0.704 -1.33,-1.563 -0.839,-0.859 -1.614,-1.562 -1.721,-1.562 -0.108,0 0.491,0.703 1.33,1.562 m -280.483,2.441 -1.939,2.051 2.051,-1.938 c 1.906,-1.801 2.23,-2.163 1.939,-2.163 -0.062,0 -0.985,0.922 -2.051,2.05 m 285.171,2.247 c 0.839,0.859 1.613,1.562 1.721,1.562 0.107,0 -0.492,-0.703 -1.331,-1.562 -0.839,-0.86 -1.613,-1.563 -1.721,-1.563 -0.107,0 0.492,0.703 1.331,1.563 m 21.099,25.891 c 0.378,0.597 0.784,0.988 0.905,0.868 0.12,-0.12 -0.189,-0.609 -0.686,-1.087 l -0.905,-0.868 0.686,1.087 m 2.148,2.819 c 0,0.215 0.349,0.918 0.776,1.563 0.427,0.644 0.776,0.996 0.776,0.781 0,-0.215 -0.349,-0.918 -0.776,-1.562 -0.427,-0.645 -0.776,-0.996 -0.776,-0.782 m -231.841,16.429 c -0.728,0.619 -0.864,0.848 -0.359,0.606 0.727,-0.348 2.043,-1.608 1.676,-1.603 -0.08,0.001 -0.673,0.45 -1.317,0.997 m -15.841,13.357 -1.347,1.464 1.465,-1.346 c 0.806,-0.74 1.465,-1.399 1.465,-1.465 0,-0.298 -0.33,-0.017 -1.583,1.347 m 266.102,5.586 c 0.228,0.655 0.488,1.119 0.576,1.031 0.194,-0.194 -0.543,-2.223 -0.807,-2.223 -0.102,0 0.002,0.536 0.231,1.192 m 0.743,1.738 c 0,0.215 0.251,0.83 0.558,1.367 0.307,0.537 0.559,0.801 0.559,0.586 0,-0.215 -0.252,-0.83 -0.559,-1.367 -0.307,-0.537 -0.558,-0.801 -0.558,-0.586 m -280.161,8.496 c -0.632,0.901 -0.69,1.109 -0.201,0.716 0.696,-0.559 1.611,-1.986 1.273,-1.986 -0.1,0 -0.583,0.572 -1.072,1.27 M 399.7,191.406 c 0,0.752 0.08,1.06 0.179,0.684 0.098,-0.376 0.098,-0.991 0,-1.367 -0.099,-0.376 -0.179,-0.069 -0.179,0.683 m -85.9,8.399 c 0.002,1.504 0.072,2.071 0.157,1.261 0.085,-0.811 0.083,-2.041 -0.003,-2.735 -0.086,-0.693 -0.156,-0.03 -0.154,1.474 m 85.9,8.789 c 0,0.752 0.08,1.059 0.179,0.683 0.098,-0.376 0.098,-0.991 0,-1.367 -0.099,-0.376 -0.179,-0.068 -0.179,0.684 m -8.44,49.267 c -0.137,0.687 -0.177,1.321 -0.089,1.409 0.089,0.088 0.282,-0.392 0.431,-1.067 0.148,-0.675 0.188,-1.309 0.088,-1.409 -0.099,-0.099 -0.293,0.381 -0.43,1.067 m -110.791,22.803 c -0.949,0.967 -1.638,1.758 -1.53,1.758 0.107,0 0.972,-0.791 1.92,-1.758 0.949,-0.967 1.638,-1.758 1.53,-1.758 -0.107,0 -0.971,0.791 -1.92,1.758 M 31.275,307.617 c 0,0.215 0.258,0.732 0.573,1.149 0.316,0.417 0.574,0.583 0.574,0.368 0,-0.215 -0.258,-0.732 -0.574,-1.149 -0.315,-0.417 -0.573,-0.583 -0.573,-0.368 m 131.682,1.172 c -0.006,0.43 0.14,1.133 0.324,1.563 0.428,0.995 0.428,-0.032 0,-1.368 -0.251,-0.785 -0.315,-0.823 -0.324,-0.195 m 5.056,16.797 c 0.008,0.215 0.352,1.094 0.765,1.953 0.413,0.859 0.642,1.123 0.508,0.586 -0.275,-1.106 -1.293,-3.137 -1.273,-2.539 M 55.469,338.403 c 0,0.068 0.571,0.639 1.269,1.27 l 1.27,1.147 -1.147,-1.269 c -1.07,-1.184 -1.392,-1.449 -1.392,-1.148 m 285.724,3.101 -1.545,1.66 1.661,-1.544 c 1.544,-1.436 1.839,-1.776 1.544,-1.776 -0.064,0 -0.811,0.747 -1.66,1.66 M 60.742,343.75 c 0.839,0.859 1.614,1.563 1.721,1.563 0.108,0 -0.491,-0.704 -1.33,-1.563 -0.839,-0.859 -1.614,-1.562 -1.721,-1.562 -0.108,0 0.491,0.703 1.33,1.562 m 123.828,14.063 c 0.334,0.644 0.694,1.171 0.802,1.171 0.107,0 -0.078,-0.527 -0.411,-1.171 -0.333,-0.645 -0.694,-1.172 -0.801,-1.172 -0.108,0 0.077,0.527 0.41,1.172 m 79.883,7.031 c 0.439,0.859 0.885,1.562 0.993,1.562 0.107,0 -0.164,-0.703 -0.602,-1.562 -0.439,-0.86 -0.885,-1.563 -0.993,-1.563 -0.107,0 0.164,0.703 0.602,1.563 M 86.61,364.873 c 0.478,0.497 0.967,0.806 1.087,0.686 0.12,-0.121 -0.271,-0.527 -0.868,-0.905 l -1.087,-0.686 0.868,0.905 m 104.404,2.607 c 0.512,0.699 0.991,1.27 1.065,1.27 0.297,0 -0.671,-1.465 -1.312,-1.985 -0.422,-0.343 -0.328,-0.07 0.247,0.715 M 90.43,367.578 c 0.644,0.427 1.347,0.776 1.562,0.776 0.215,0 -0.137,-0.349 -0.781,-0.776 -0.645,-0.427 -1.348,-0.776 -1.563,-0.776 -0.214,0 0.137,0.349 0.782,0.776 m 33.398,17.413 c 0,0.264 2.029,1.001 2.223,0.807 0.088,-0.088 -0.376,-0.348 -1.031,-0.576 -0.656,-0.229 -1.192,-0.333 -1.192,-0.231 m 3.516,1.532 c 0.537,0.307 1.152,0.559 1.367,0.559 0.215,0 -0.049,-0.252 -0.586,-0.559 -0.537,-0.307 -1.152,-0.558 -1.367,-0.558 -0.215,0 0.049,0.251 0.586,0.558 m 63.379,13.356 c 0.376,0.098 0.991,0.098 1.367,0 0.376,-0.099 0.068,-0.179 -0.684,-0.179 -0.752,0 -1.059,0.08 -0.683,0.179 m 17.187,0 c 0.376,0.098 0.991,0.098 1.367,0 0.376,-0.099 0.069,-0.179 -0.683,-0.179 -0.752,0 -1.06,0.08 -0.684,0.179" stroke="none" fill="#249ccc" fill-rule="evenodd"></path></g></svg>