<svg xmlns="http://www.w3.org/2000/svg" version="1.0" preserveAspectRatio="xMidYMid meet" viewBox="190.22 58.96 287.64 789.54">
<metadata>
Created by potrace 1.16, written by Peter Selinger 2001-2019
</metadata>
<g transform="translate(0.000000,916.000000) scale(0.100000,-0.100000)" fill="#000000" stroke="none">
<path d="M3285 8552 c-39 -24 -185 -179 -294 -312 -425 -521 -741 -1236 -905 -2055 -9 -44 -23 -109 -31 -145 -13 -61 -50 -299 -74 -475 -97 -727 -105 -1735 -21 -2640 6 -60 15 -162 21 -225 13 -142 68 -610 74 -630 3 -8 9 -53 15 -100 5 -47 16 -128 25 -180 15 -101 40 -412 50 -645 9 -202 33 -273 108 -312 29 -15 232 -29 490 -32 43 -1 47 -3 47 -25 0 -22 5 -24 90 -35 49 -6 102 -16 116 -21 87 -33 174 -45 344 -45 175 0 201 3 350 45 36 10 95 22 133 25 62 6 67 8 67 31 0 22 4 24 48 25 26 0 140 4 254 8 203 7 207 8 248 35 65 43 81 91 92 266 21 371 40 605 58 720 44 290 74 527 110 870 32 310 58 708 71 1065 23 679 -6 1313 -87 1900 -167 1214 -566 2152 -1188 2793 -112 116 -148 132 -211 94z m435 -2447 c555 -101 811 -391 899 -1020 31 -222 45 -666 31 -1006 -12 -296 -26 -380 -62 -387 -14 -3 -16 31 -22 285 -16 699 -29 849 -92 1041 -99 303 -330 476 -734 548 -88 16 -155 19 -405 19 -268 -1 -312 -3 -415 -23 -144 -28 -223 -52 -325 -101 -244 -117 -369 -295 -434 -619 -22 -105 -35 -349 -47 -865 -6 -254 -8 -288 -22 -285 -36 7 -50 92 -62 381 -14 334 -1 778 31 1008 91 664 377 962 999 1038 123 15 549 6 660 -14z m-797 -1298 c20 -13 27 -26 27 -49 0 -25 3 -29 12 -20 7 7 22 12 34 12 44 0 46 -13 34 -267 -10 -229 -11 -240 -38 -293 -18 -35 -42 -65 -70 -85 -43 -30 -45 -30 -195 -33 -142 -3 -155 -1 -196 20 -105 54 -127 122 -136 424 -7 234 -6 242 55 229 27 -6 30 -4 30 18 0 31 27 54 70 60 19 3 105 4 191 3 129 -1 160 -5 182 -19z m1257 -2 c11 -10 20 -29 20 -42 0 -22 3 -24 30 -18 61 13 62 5 55 -229 -9 -302 -31 -370 -136 -424 -41 -21 -54 -23 -196 -20 -150 3 -152 3 -195 33 -68 48 -96 116 -102 245 -18 359 -18 371 -6 385 15 18 52 19 68 3 9 -9 12 -5 12 19 0 62 43 73 267 69 141 -2 165 -5 183 -21z m-1020 -2064 c18 -12 31 -259 28 -526 l-3 -190 -389 -3 c-295 -2 -392 1 -403 10 -19 15 -13 80 16 188 14 50 21 108 22 175 1 169 14 322 28 339 12 14 54 16 350 16 187 0 342 -4 351 -9z m1067 -21 c7 -15 14 -104 18 -225 6 -161 12 -219 31 -297 27 -110 30 -151 10 -167 -9 -8 -123 -10 -402 -9 l-389 3 -3 181 c-4 264 10 523 28 535 9 5 158 8 355 6 l340 -2 12 -25z"/>
<path d="M2596 4297 c-10 -7 -16 -22 -14 -33 3 -18 13 -19 133 -19 112 0 130 2 133 16 2 9 -4 24 -13 33 -21 21 -211 23 -239 3z"/>
<path d="M3846 4294 c-18 -17 -19 -24 -8 -42 7 -9 40 -12 133 -10 113 3 124 5 127 22 7 35 -25 46 -134 46 -80 0 -106 -3 -118 -16z"/>
</g>
</svg>